BBB Poppins TN-900i.ufo
<glyph name="exclam" format="1">
  <advance width="455"/>
  <unicode hex="0021"/>
  <outline>
    <contour>
      <point x="190" y="755" type="line"/>
      <point x="133" y="281" type="line"/>
      <point x="323" y="281" type="line"/>
      <point x="432" y="755" type="line"/>
    </contour>
    <component base="period" xOffset="68"/>
  </outline>
</glyph>
<glyph name="quotedbl" format="1">
  <advance width="490"/>
  <unicode hex="0022"/>
  <outline>
    <contour>
      <point x="137" y="803" type="line"/>
      <point x="109" y="568" type="line"/>
      <point x="257" y="568" type="line"/>
      <point x="312" y="803" type="line"/>
    </contour>
    <contour>
      <point x="362" y="803" type="line"/>
      <point x="334" y="568" type="line"/>
      <point x="482" y="568" type="line"/>
      <point x="537" y="803" type="line"/>
    </contour>
  </outline>
</glyph>
<glyph name="ampersand" format="1">
  <advance width="837"/>
  <unicode hex="0026"/>
  <outline>
    <contour>
      <point x="436" y="524" type="curve"/>
      <point x="638" y="524" type="line"/>
      <point x="640" y="535"/>
      <point x="641" y="545"/>
      <point x="641" y="555" type="curve" smooth="yes"/>
      <point x="641" y="641"/>
      <point x="572" y="711"/>
      <point x="428" y="711" type="curve" smooth="yes"/>
      <point x="272" y="711"/>
      <point x="153" y="626"/>
      <point x="153" y="493" type="curve" smooth="yes"/>
      <point x="153" y="452"/>
      <point x="169" y="413"/>
      <point x="208" y="367" type="curve" smooth="yes"/>
      <point x="535" y="0" type="line"/>
      <point x="779" y="0" type="line"/>
      <point x="391" y="452" type="line" smooth="yes"/>
      <point x="370" y="476"/>
      <point x="360" y="499"/>
      <point x="360" y="519" type="curve" smooth="yes"/>
      <point x="360" y="548"/>
      <point x="382" y="562"/>
      <point x="404" y="562" type="curve" smooth="yes"/>
      <point x="420" y="562"/>
      <point x="437" y="553"/>
      <point x="437" y="533" type="curve" smooth="yes"/>
      <point x="437" y="530"/>
      <point x="437" y="527"/>
    </contour>
    <contour>
      <point x="404" y="329" type="line"/>
      <point x="345" y="456" type="line"/>
      <point x="251" y="428" type="line" smooth="yes"/>
      <point x="117" y="388"/>
      <point x="7" y="297"/>
      <point x="7" y="172" type="curve" smooth="yes"/>
      <point x="7" y="62"/>
      <point x="105" y="-10"/>
      <point x="263" y="-10" type="curve" smooth="yes"/>
      <point x="482" y="-10"/>
      <point x="640" y="116"/>
      <point x="766" y="340" type="curve" smooth="yes"/>
      <point x="780" y="366" type="line"/>
      <point x="565" y="366" type="line"/>
      <point x="561" y="357" type="line" smooth="yes"/>
      <point x="502" y="242"/>
      <point x="422" y="165"/>
      <point x="312" y="165" type="curve" smooth="yes"/>
      <point x="260" y="165"/>
      <point x="235" y="189"/>
      <point x="235" y="217" type="curve" smooth="yes"/>
      <point x="235" y="251"/>
      <point x="271" y="294"/>
      <point x="338" y="312" type="curve" smooth="yes"/>
    </contour>
  </outline>
</glyph>
<glyph name="quotesingle" format="1">
  <advance width="265"/>
  <unicode hex="0027"/>
  <outline>
    <contour>
      <point x="137" y="803" type="line"/>
      <point x="109" y="568" type="line"/>
      <point x="257" y="568" type="line"/>
      <point x="312" y="803" type="line"/>
    </contour>
  </outline>
</glyph>
<glyph name="parenleft" format="1">
  <advance width="459"/>
  <unicode hex="0028"/>
  <outline>
    <contour>
      <point x="168" y="-86" type="curve"/>
      <point x="408" y="-86" type="line"/>
      <point x="316" y="42"/>
      <point x="264" y="143"/>
      <point x="264" y="263" type="curve" smooth="yes"/>
      <point x="264" y="474"/>
      <point x="408" y="647"/>
      <point x="564" y="794" type="curve"/>
      <point x="324" y="794" type="line"/>
      <point x="153" y="636"/>
      <point x="42" y="457"/>
      <point x="42" y="242" type="curve" smooth="yes"/>
      <point x="42" y="116"/>
      <point x="89" y="15"/>
    </contour>
  </outline>
</glyph>
<glyph name="parenright" format="1">
  <advance width="459"/>
  <unicode hex="0029"/>
  <outline>
    <contour>
      <point x="160" y="-86" type="line"/>
      <point x="365" y="93"/>
      <point x="439" y="270"/>
      <point x="439" y="461" type="curve" smooth="yes"/>
      <point x="439" y="580"/>
      <point x="393" y="687"/>
      <point x="316" y="794" type="curve"/>
      <point x="76" y="794" type="line"/>
      <point x="167" y="665"/>
      <point x="217" y="552"/>
      <point x="217" y="429" type="curve" smooth="yes"/>
      <point x="217" y="215"/>
      <point x="84" y="65"/>
      <point x="-80" y="-86" type="curve"/>
    </contour>
  </outline>
</glyph>
<glyph name="asterisk" format="1">
  <advance width="561"/>
  <unicode hex="002A"/>
  <outline>
    <contour>
      <point x="387" y="625" type="line"/>
      <point x="437" y="744" type="line"/>
      <point x="295" y="744" type="line"/>
      <point x="305" y="625" type="line"/>
      <point x="228" y="708" type="line"/>
      <point x="140" y="587" type="line"/>
      <point x="243" y="555" type="line"/>
      <point x="126" y="519" type="line"/>
      <point x="178" y="390" type="line"/>
      <point x="278" y="477" type="line"/>
      <point x="230" y="360" type="line"/>
      <point x="369" y="360" type="line"/>
      <point x="361" y="477" type="line"/>
      <point x="433" y="391" type="line"/>
      <point x="529" y="518" type="line"/>
      <point x="424" y="552" type="line"/>
      <point x="541" y="588" type="line"/>
      <point x="495" y="709" type="line"/>
    </contour>
  </outline>
</glyph>
<glyph name="slash" format="1">
  <advance width="399"/>
  <unicode hex="002F"/>
  <outline>
    <contour>
      <point x="349" y="955" type="line"/>
      <point x="-121" y="-198" type="line"/>
      <point x="92" y="-198" type="line"/>
      <point x="561" y="955" type="line"/>
    </contour>
  </outline>
</glyph>
<glyph name="one" format="1">
  <advance width="399"/>
  <unicode hex="0031"/>
  <outline>
    <contour>
      <point x="154" y="500" type="line"/>
      <point x="66" y="0" type="line"/>
      <point x="299" y="0" type="line"/>
      <point x="424" y="708" type="line"/>
      <point x="85" y="708" type="line"/>
      <point x="48" y="500" type="line"/>
    </contour>
  </outline>
</glyph>
<glyph name="three" format="1">
  <advance width="615"/>
  <unicode hex="0033"/>
  <outline>
    <contour>
      <point x="343" y="427" type="curve"/>
      <point x="286" y="427" type="line"/>
      <point x="349" y="370" type="line"/>
      <point x="596" y="554" type="line"/>
      <point x="625" y="717" type="line"/>
      <point x="151" y="717" type="line"/>
      <point x="117" y="527" type="line"/>
      <point x="410" y="527" type="line"/>
      <point x="370" y="561" type="line"/>
      <point x="209" y="441" type="line"/>
      <point x="185" y="302" type="line"/>
      <point x="272" y="302" type="line" smooth="yes"/>
      <point x="324" y="302"/>
      <point x="354" y="275"/>
      <point x="346" y="229" type="curve" smooth="yes"/>
      <point x="340" y="197"/>
      <point x="318" y="176"/>
      <point x="289" y="176" type="curve" smooth="yes"/>
      <point x="247" y="176"/>
      <point x="236" y="202"/>
      <point x="247" y="249" type="curve"/>
      <point x="31" y="249" type="line"/>
      <point x="2" y="65"/>
      <point x="102" y="-7"/>
      <point x="256" y="-7" type="curve" smooth="yes"/>
      <point x="408" y="-7"/>
      <point x="526" y="84"/>
      <point x="549" y="215" type="curve" smooth="yes"/>
      <point x="574" y="354"/>
      <point x="489" y="427"/>
    </contour>
  </outline>
</glyph>
<glyph name="seven" format="1">
  <advance width="512"/>
  <unicode hex="0037"/>
  <outline>
    <contour>
      <point x="579" y="717" type="line"/>
      <point x="97" y="717" type="line"/>
      <point x="63" y="527" type="line"/>
      <point x="319" y="527" type="line"/>
      <point x="-20" y="0" type="line"/>
      <point x="208" y="0" type="line"/>
      <point x="550" y="554" type="line"/>
    </contour>
  </outline>
</glyph>
<glyph name="less" format="1">
  <advance width="497"/>
  <unicode hex="003C"/>
  <outline>
    <contour>
      <point x="449" y="125" type="line"/>
      <point x="307" y="340" type="line"/>
      <point x="525" y="556" type="line"/>
      <point x="248" y="556" type="line"/>
      <point x="30" y="340" type="line"/>
      <point x="172" y="125" type="line"/>
    </contour>
  </outline>
</glyph>
<glyph name="equal" format="1">
  <advance width="626"/>
  <unicode hex="003D"/>
  <outline>
    <contour>
      <point x="23" y="300" type="line"/>
      <point x="-12" y="99" type="line"/>
      <point x="574" y="99" type="line"/>
      <point x="609" y="300" type="line"/>
    </contour>
    <contour>
      <point x="73" y="580" type="line"/>
      <point x="37" y="379" type="line"/>
      <point x="623" y="379" type="line"/>
      <point x="659" y="580" type="line"/>
    </contour>
  </outline>
</glyph>
<glyph name="greater" format="1">
  <advance width="497"/>
  <unicode hex="003E"/>
  <outline>
    <contour>
      <point x="210" y="340" type="line"/>
      <point x="-8" y="125" type="line"/>
      <point x="269" y="125" type="line"/>
      <point x="487" y="340" type="line"/>
      <point x="345" y="556" type="line"/>
      <point x="68" y="556" type="line"/>
    </contour>
  </outline>
</glyph>
<glyph name="A" format="1">
  <advance width="780"/>
  <unicode hex="0041"/>
  <outline>
    <contour>
      <point x="597" y="708" type="line"/>
      <point x="341" y="708" type="line"/>
      <point x="-43" y="0" type="line"/>
      <point x="190" y="0" type="line"/>
      <point x="488" y="593" type="line"/>
      <point x="409" y="593" type="line"/>
      <point x="496" y="0" type="line"/>
      <point x="730" y="0" type="line"/>
    </contour>
    <contour>
      <point x="176" y="274" type="line"/>
      <point x="90" y="107" type="line"/>
      <point x="610" y="107" type="line"/>
      <point x="585" y="274" type="line"/>
    </contour>
    <contour>
      <point x="730" y="0" type="move" name="ogonek"/>
    </contour>
    <contour>
      <point x="470" y="711" type="move" name="top"/>
    </contour>
  </outline>
</glyph>
<glyph name="C" format="1">
  <advance width="748"/>
  <unicode hex="0043"/>
  <outline>
    <contour>
      <point x="85" y="566"/>
      <point x="48" y="355" type="curve"/>
      <point x="11" y="144"/>
      <point x="117" y="-5"/>
      <point x="334" y="-5" type="curve"/>
      <point x="521" y="-5"/>
      <point x="668" y="107"/>
      <point x="727" y="274" type="curve"/>
      <point x="493" y="274" type="line"/>
      <point x="463" y="227"/>
      <point x="417" y="200"/>
      <point x="367" y="200" type="curve"/>
      <point x="292" y="200"/>
      <point x="256" y="261"/>
      <point x="273" y="355" type="curve"/>
      <point x="289" y="449"/>
      <point x="346" y="510"/>
      <point x="421" y="510" type="curve"/>
      <point x="471" y="510"/>
      <point x="508" y="483"/>
      <point x="521" y="436" type="curve"/>
      <point x="755" y="436" type="line"/>
      <point x="756" y="603"/>
      <point x="648" y="715"/>
      <point x="461" y="715" type="curve"/>
      <point x="244" y="715"/>
    </contour>
    <contour>
      <point x="332" y="0" type="move" name="bottom"/>
    </contour>
    <contour>
      <point x="458" y="711" type="move" name="top"/>
    </contour>
  </outline>
</glyph>
<glyph name="D" format="1">
  <advance width="748"/>
  <unicode hex="0044"/>
  <outline>
    <contour>
      <point x="646" y="708"/>
      <point x="420" y="708" type="curve" smooth="yes"/>
      <point x="125" y="708" type="line"/>
      <point x="0" y="0" type="line"/>
      <point x="295" y="0" type="line" smooth="yes"/>
      <point x="521" y="0"/>
      <point x="690" y="154"/>
      <point x="726" y="356" type="curve" smooth="yes"/>
      <point x="762" y="560"/>
    </contour>
    <contour>
      <point x="310" y="198" type="curve" smooth="yes"/>
      <point x="257" y="198" type="line"/>
      <point x="313" y="514" type="line"/>
      <point x="366" y="514" type="line" smooth="yes"/>
      <point x="464" y="514"/>
      <point x="519" y="459"/>
      <point x="501" y="356" type="curve" smooth="yes"/>
      <point x="483" y="253"/>
      <point x="408" y="198"/>
    </contour>
    <contour>
      <point x="435" y="711" type="move" name="top"/>
    </contour>
  </outline>
</glyph>
<glyph name="E" format="1">
  <advance width="562"/>
  <unicode hex="0045"/>
  <outline>
    <contour>
      <point x="566" y="532" type="line"/>
      <point x="597" y="708" type="line"/>
      <point x="125" y="708" type="line"/>
      <point x="0" y="0" type="line"/>
      <point x="472" y="0" type="line"/>
      <point x="503" y="177" type="line"/>
      <point x="253" y="177" type="line"/>
      <point x="271" y="277" type="line"/>
      <point x="491" y="277" type="line"/>
      <point x="521" y="444" type="line"/>
      <point x="301" y="444" type="line"/>
      <point x="316" y="532" type="line"/>
    </contour>
    <contour>
      <point x="232" y="0" type="move" name="bottom"/>
    </contour>
    <contour>
      <point x="472" y="0" type="move" name="ogonek"/>
    </contour>
    <contour>
      <point x="358" y="711" type="move" name="top"/>
    </contour>
  </outline>
</glyph>
<glyph name="G" format="1">
  <advance width="762"/>
  <unicode hex="0047"/>
  <outline>
    <contour>
      <point x="85" y="566"/>
      <point x="48" y="355" type="curve"/>
      <point x="11" y="144"/>
      <point x="121" y="-5"/>
      <point x="344" y="-5" type="curve"/>
      <point x="527" y="-5"/>
      <point x="646" y="102"/>
      <point x="710" y="187" type="curve"/>
      <point x="749" y="409" type="line"/>
      <point x="438" y="409" type="line"/>
      <point x="313" y="252" type="line"/>
      <point x="538" y="252" type="line"/>
      <point x="497" y="208"/>
      <point x="453" y="190"/>
      <point x="403" y="190" type="curve"/>
      <point x="294" y="190"/>
      <point x="253" y="245"/>
      <point x="273" y="355" type="curve"/>
      <point x="289" y="449"/>
      <point x="348" y="510"/>
      <point x="434" y="510" type="curve"/>
      <point x="480" y="510"/>
      <point x="509" y="493"/>
      <point x="521" y="466" type="curve"/>
      <point x="755" y="466" type="line"/>
      <point x="761" y="617"/>
      <point x="657" y="715"/>
      <point x="469" y="715" type="curve"/>
      <point x="247" y="715"/>
    </contour>
    <contour>
      <point x="332" y="0" type="move" name="bottom"/>
    </contour>
    <contour>
      <point x="458" y="711" type="move" name="top"/>
    </contour>
  </outline>
</glyph>
<glyph name="H" format="1">
  <advance width="755"/>
  <unicode hex="0048"/>
  <outline>
    <contour>
      <point x="125" y="708" type="line"/>
      <point x="0" y="0" type="line"/>
      <point x="222" y="0" type="line"/>
      <point x="347" y="708" type="line"/>
    </contour>
    <contour>
      <point x="558" y="708" type="line"/>
      <point x="433" y="0" type="line"/>
      <point x="655" y="0" type="line"/>
      <point x="780" y="708" type="line"/>
    </contour>
    <contour>
      <point x="282" y="453" type="line"/>
      <point x="251" y="276" type="line"/>
      <point x="504" y="276" type="line"/>
      <point x="535" y="453" type="line"/>
    </contour>
  </outline>
</glyph>
<glyph name="J" format="1">
  <advance width="579"/>
  <unicode hex="004A"/>
  <outline>
    <contour>
      <point x="383" y="708" type="line"/>
      <point x="303" y="251" type="line" smooth="yes"/>
      <point x="294" y="205"/>
      <point x="274" y="193"/>
      <point x="250" y="193" type="curve" smooth="yes"/>
      <point x="221" y="193"/>
      <point x="201" y="209"/>
      <point x="212" y="271" type="curve"/>
      <point x="-7" y="271" type="line"/>
      <point x="-40" y="85"/>
      <point x="59" y="-7"/>
      <point x="225" y="-7" type="curve" smooth="yes"/>
      <point x="381" y="-7"/>
      <point x="493" y="78"/>
      <point x="524" y="251" type="curve" smooth="yes"/>
      <point x="604" y="708" type="line"/>
    </contour>
  </outline>
</glyph>
<glyph name="K" format="1">
  <advance width="749"/>
  <unicode hex="004B"/>
  <outline>
    <contour>
      <point x="125" y="708" type="line"/>
      <point x="0" y="0" type="line"/>
      <point x="222" y="0" type="line"/>
      <point x="347" y="708" type="line"/>
    </contour>
    <contour>
      <point x="555" y="708" type="line"/>
      <point x="286" y="359" type="line"/>
      <point x="433" y="0" type="line"/>
      <point x="689" y="0" type="line"/>
      <point x="510" y="375" type="line"/>
      <point x="478" y="329" type="line"/>
      <point x="798" y="708" type="line"/>
    </contour>
    <contour>
      <point x="324" y="0" type="move" name="bottom"/>
    </contour>
    <contour>
      <point x="450" y="711" type="move" name="top"/>
    </contour>
  </outline>
</glyph>
<glyph name="L" format="1">
  <advance width="496"/>
  <unicode hex="004C"/>
  <outline>
    <contour>
      <point x="347" y="708" type="line"/>
      <point x="125" y="708" type="line"/>
      <point x="0" y="0" type="line"/>
      <point x="436" y="0" type="line"/>
      <point x="466" y="168" type="line"/>
      <point x="252" y="168" type="line"/>
    </contour>
    <contour>
      <point x="215" y="0" type="move" name="bottom"/>
    </contour>
    <contour>
      <point x="217" y="10" type="move" name="commaaccent"/>
    </contour>
    <contour>
      <point x="307" y="711" type="move" name="top"/>
    </contour>
    <contour>
      <point x="542" y="711" type="move" name="topright"/>
    </contour>
  </outline>
</glyph>
<glyph name="M" format="1">
  <advance width="954"/>
  <unicode hex="004D"/>
  <outline>
    <contour>
      <point x="125" y="708" type="line"/>
      <point x="1" y="0" type="line"/>
      <point x="223" y="0" type="line"/>
      <point x="325" y="579" type="line"/>
      <point x="317" y="564" type="line"/>
      <point x="342" y="0" type="line"/>
      <point x="514" y="0" type="line"/>
      <point x="735" y="564" type="line"/>
      <point x="733" y="579" type="line"/>
      <point x="631" y="0" type="line"/>
      <point x="854" y="0" type="line"/>
      <point x="978" y="708" type="line"/>
      <point x="628" y="708" type="line"/>
      <point x="414" y="149" type="line"/>
      <point x="492" y="149" type="line"/>
      <point x="470" y="708" type="line"/>
    </contour>
  </outline>
</glyph>
<glyph name="N" format="1">
  <advance width="780"/>
  <unicode hex="004E"/>
  <outline>
    <contour>
      <point x="503" y="0" type="line"/>
      <point x="482" y="708" type="line"/>
      <point x="303" y="708" type="line"/>
      <point x="325" y="0" type="line"/>
    </contour>
    <contour>
      <point x="458" y="0" type="line"/>
      <point x="680" y="0" type="line"/>
      <point x="804" y="708" type="line"/>
      <point x="582" y="708" type="line"/>
    </contour>
    <contour>
      <point x="347" y="708" type="line"/>
      <point x="125" y="708" type="line"/>
      <point x="1" y="0" type="line"/>
      <point x="223" y="0" type="line"/>
    </contour>
    <contour>
      <point x="340" y="0" type="move" name="bottom"/>
    </contour>
    <contour>
      <point x="466" y="711" type="move" name="top"/>
    </contour>
  </outline>
</glyph>
<glyph name="O" format="1">
  <advance width="783"/>
  <unicode hex="004F"/>
  <outline>
    <contour>
      <point x="345" y="-7" type="curve" smooth="yes"/>
      <point x="597" y="-7"/>
      <point x="765" y="172"/>
      <point x="765" y="427" type="curve" smooth="yes"/>
      <point x="765" y="603"/>
      <point x="648" y="720"/>
      <point x="462" y="720" type="curve" smooth="yes"/>
      <point x="213" y="720"/>
      <point x="45" y="545"/>
      <point x="45" y="289" type="curve" smooth="yes"/>
      <point x="45" y="113"/>
      <point x="163" y="-7"/>
    </contour>
    <contour>
      <point x="379" y="200" type="curve" smooth="yes"/>
      <point x="302" y="200"/>
      <point x="263" y="245"/>
      <point x="263" y="317" type="curve" smooth="yes"/>
      <point x="263" y="422"/>
      <point x="326" y="515"/>
      <point x="434" y="515" type="curve" smooth="yes"/>
      <point x="509" y="515"/>
      <point x="548" y="471"/>
      <point x="548" y="399" type="curve" smooth="yes"/>
      <point x="548" y="294"/>
      <point x="487" y="200"/>
    </contour>
    <contour>
      <point x="469" y="711" type="move" name="top"/>
    </contour>
  </outline>
</glyph>
<glyph name="P" format="1">
  <advance width="654"/>
  <unicode hex="0050"/>
  <outline>
    <contour>
      <point x="356" y="400" type="curve"/>
      <point x="293" y="400" type="line"/>
      <point x="316" y="530" type="line"/>
      <point x="379" y="530" type="line" smooth="yes"/>
      <point x="429" y="530"/>
      <point x="443" y="504"/>
      <point x="436" y="465" type="curve"/>
      <point x="429" y="426"/>
      <point x="406" y="400"/>
    </contour>
    <contour>
      <point x="638" y="334"/>
      <point x="661" y="465" type="curve"/>
      <point x="686" y="608"/>
      <point x="613" y="708"/>
      <point x="435" y="708" type="curve" smooth="yes"/>
      <point x="125" y="708" type="line"/>
      <point x="0" y="0" type="line"/>
      <point x="222" y="0" type="line"/>
      <point x="262" y="225" type="line"/>
      <point x="350" y="225" type="line" smooth="yes"/>
      <point x="528" y="225"/>
    </contour>
  </outline>
</glyph>
<glyph name="Q" format="1">
  <advance width="789"/>
  <unicode hex="0051"/>
  <outline>
    <contour>
      <point x="475" y="366" type="line"/>
      <point x="314" y="366" type="line"/>
      <point x="520" y="-115" type="line"/>
      <point x="704" y="-115" type="line"/>
    </contour>
    <component base="O"/>
  </outline>
</glyph>
<glyph name="S" format="1">
  <advance width="626"/>
  <unicode hex="0053"/>
  <outline>
    <contour>
      <point x="296" y="-7" type="curve" smooth="yes"/>
      <point x="478" y="-7"/>
      <point x="584" y="92"/>
      <point x="584" y="221" type="curve" smooth="yes"/>
      <point x="584" y="424"/>
      <point x="302" y="426"/>
      <point x="302" y="511" type="curve" smooth="yes"/>
      <point x="302" y="533"/>
      <point x="319" y="547"/>
      <point x="341" y="547" type="curve" smooth="yes"/>
      <point x="370" y="547"/>
      <point x="387" y="528"/>
      <point x="380" y="491" type="curve"/>
      <point x="619" y="491" type="line"/>
      <point x="637" y="635"/>
      <point x="518" y="720"/>
      <point x="354" y="720" type="curve" smooth="yes"/>
      <point x="183" y="720"/>
      <point x="59" y="634"/>
      <point x="59" y="480" type="curve" smooth="yes"/>
      <point x="59" y="276"/>
      <point x="342" y="291"/>
      <point x="342" y="201" type="curve" smooth="yes"/>
      <point x="342" y="178"/>
      <point x="323" y="166"/>
      <point x="300" y="166" type="curve" smooth="yes"/>
      <point x="261" y="166"/>
      <point x="245" y="186"/>
      <point x="249" y="227" type="curve"/>
      <point x="13" y="227" type="line"/>
      <point x="-5" y="68"/>
      <point x="118" y="-7"/>
    </contour>
    <contour>
      <point x="272" y="0" type="move" name="bottom"/>
    </contour>
    <contour>
      <point x="398" y="711" type="move" name="top"/>
    </contour>
  </outline>
</glyph>
<glyph name="T" format="1">
  <advance width="611"/>
  <unicode hex="0054"/>
  <outline>
    <contour>
      <point x="80" y="708" type="line"/>
      <point x="49" y="532" type="line"/>
      <point x="235" y="532" type="line"/>
      <point x="141" y="0" type="line"/>
      <point x="363" y="0" type="line"/>
      <point x="457" y="532" type="line"/>
      <point x="645" y="532" type="line"/>
      <point x="676" y="708" type="line"/>
    </contour>
    <contour>
      <point x="248" y="0" type="move" name="bottom"/>
    </contour>
    <contour>
      <point x="374" y="711" type="move" name="top"/>
    </contour>
  </outline>
</glyph>
<glyph name="U" format="1">
  <advance width="717"/>
  <unicode hex="0055"/>
  <outline>
    <contour>
      <point x="120" y="708" type="line"/>
      <point x="50" y="309" type="line" smooth="yes"/>
      <point x="13" y="100"/>
      <point x="127" y="-7"/>
      <point x="304" y="-7" type="curve" smooth="yes"/>
      <point x="486" y="-7"/>
      <point x="639" y="94"/>
      <point x="677" y="309" type="curve" smooth="yes"/>
      <point x="747" y="708" type="line"/>
      <point x="526" y="708" type="line"/>
      <point x="456" y="309" type="line" smooth="yes"/>
      <point x="445" y="248"/>
      <point x="410" y="203"/>
      <point x="343" y="203" type="curve" smooth="yes"/>
      <point x="276" y="203"/>
      <point x="260" y="248"/>
      <point x="271" y="309" type="curve" smooth="yes"/>
      <point x="341" y="708" type="line"/>
    </contour>
    <contour>
      <point x="399" y="3" type="move" name="ogonek"/>
    </contour>
    <contour>
      <point x="435" y="711" type="move" name="top"/>
    </contour>
  </outline>
</glyph>
<glyph name="X" format="1">
  <advance width="764"/>
  <unicode hex="0058"/>
  <outline>
    <contour>
      <point x="75" y="708" type="line"/>
      <point x="451" y="0" type="line"/>
      <point x="714" y="0" type="line"/>
      <point x="338" y="708" type="line"/>
    </contour>
    <contour>
      <point x="399" y="243" type="line"/>
      <point x="299" y="416" type="line"/>
      <point x="-40" y="0" type="line"/>
      <point x="213" y="0" type="line"/>
    </contour>
    <contour>
      <point x="382" y="466" type="line"/>
      <point x="482" y="293" type="line"/>
      <point x="820" y="708" type="line"/>
      <point x="567" y="708" type="line"/>
    </contour>
  </outline>
</glyph>
<glyph name="Y" format="1">
  <advance width="725"/>
  <unicode hex="0059"/>
  <outline>
    <contour>
      <point x="70" y="708" type="line"/>
      <point x="237" y="215" type="line"/>
      <point x="199" y="0" type="line"/>
      <point x="421" y="0" type="line"/>
      <point x="459" y="215" type="line"/>
      <point x="800" y="708" type="line"/>
      <point x="550" y="708" type="line"/>
      <point x="337" y="368" type="line"/>
      <point x="417" y="368" type="line"/>
      <point x="324" y="708" type="line"/>
    </contour>
    <contour>
      <point x="437" y="711" type="move" name="top"/>
    </contour>
  </outline>
</glyph>
<glyph name="Z" format="1">
  <advance width="630"/>
  <unicode hex="005A"/>
  <outline>
    <contour>
      <point x="626" y="541" type="line"/>
      <point x="655" y="708" type="line"/>
      <point x="125" y="708" type="line"/>
      <point x="94" y="532" type="line"/>
      <point x="374" y="532" type="line"/>
      <point x="30" y="167" type="line"/>
      <point x="0" y="0" type="line"/>
      <point x="530" y="0" type="line"/>
      <point x="561" y="177" type="line"/>
      <point x="277" y="177" type="line"/>
    </contour>
    <contour>
      <point x="391" y="711" type="move" name="top"/>
    </contour>
  </outline>
</glyph>
<glyph name="bracketleft" format="1">
  <advance width="533"/>
  <unicode hex="005B"/>
  <outline>
    <contour>
      <point x="203" y="895" type="line"/>
      <point x="5" y="-229" type="line"/>
      <point x="387" y="-229" type="line"/>
      <point x="418" y="-51" type="line"/>
      <point x="244" y="-51" type="line"/>
      <point x="380" y="717" type="line"/>
      <point x="554" y="717" type="line"/>
      <point x="585" y="895" type="line"/>
    </contour>
  </outline>
</glyph>
<glyph name="backslash" format="1">
  <advance width="592"/>
  <unicode hex="005C"/>
  <outline>
    <contour>
      <point x="437" y="-198" type="line"/>
      <point x="401" y="955" type="line"/>
      <point x="189" y="955" type="line"/>
      <point x="225" y="-198" type="line"/>
    </contour>
  </outline>
</glyph>
<glyph name="bracketright" format="1">
  <advance width="533"/>
  <unicode hex="005D"/>
  <outline>
    <contour>
      <point x="546" y="895" type="line"/>
      <point x="164" y="895" type="line"/>
      <point x="133" y="717" type="line"/>
      <point x="307" y="717" type="line"/>
      <point x="171" y="-51" type="line"/>
      <point x="-3" y="-51" type="line"/>
      <point x="-34" y="-229" type="line"/>
      <point x="348" y="-229" type="line"/>
    </contour>
  </outline>
</glyph>
<glyph name="asciicircum" format="1">
  <advance width="758"/>
  <unicode hex="005E"/>
  <outline>
    <contour>
      <point x="411" y="460" type="line"/>
      <point x="492" y="162" type="line"/>
      <point x="712" y="162" type="line"/>
      <point x="565" y="711" type="line"/>
      <point x="347" y="711" type="line"/>
      <point x="4" y="162" type="line"/>
      <point x="224" y="162" type="line"/>
    </contour>
  </outline>
</glyph>
<glyph name="underscore" format="1">
  <advance width="764"/>
  <unicode hex="005F"/>
  <outline>
    <contour>
      <point x="-8" y="-42" type="line"/>
      <point x="-46" y="-258" type="line"/>
      <point x="629" y="-258" type="line"/>
      <point x="667" y="-42" type="line"/>
    </contour>
  </outline>
</glyph>
<glyph name="grave" format="1">
  <advance width="324"/>
  <unicode hex="0060"/>
  <outline>
    <contour>
      <point x="107" y="860" type="line"/>
      <point x="76" y="688" type="line"/>
      <point x="329" y="583" type="line"/>
      <point x="359" y="745" type="line"/>
    </contour>
    <contour>
      <point x="191" y="564" type="move" name="_top"/>
    </contour>
  </outline>
</glyph>
<glyph name="a" format="1">
  <advance width="641"/>
  <unicode hex="0061"/>
  <outline>
    <contour>
      <point x="343" y="76" type="curve"/>
      <point x="330" y="0" type="line"/>
      <point x="551" y="0" type="line"/>
      <point x="609" y="329" type="line" smooth="yes"/>
      <point x="612" y="348"/>
      <point x="613" y="363"/>
      <point x="613" y="379" type="curve" smooth="yes"/>
      <point x="613" y="496"/>
      <point x="523" y="572"/>
      <point x="365" y="572" type="curve" smooth="yes"/>
      <point x="204" y="572"/>
      <point x="89" y="479"/>
      <point x="47" y="354" type="curve"/>
      <point x="271" y="354" type="line"/>
      <point x="283" y="375"/>
      <point x="304" y="394"/>
      <point x="337" y="394" type="curve" smooth="yes"/>
      <point x="368" y="394"/>
      <point x="388" y="377"/>
      <point x="388" y="346" type="curve" smooth="yes"/>
      <point x="388" y="340"/>
      <point x="387" y="334"/>
      <point x="386" y="328" type="curve"/>
      <point x="289" y="328" type="line" smooth="yes"/>
      <point x="129" y="328"/>
      <point x="1" y="252"/>
      <point x="1" y="128" type="curve" smooth="yes"/>
      <point x="1" y="35"/>
      <point x="66" y="-11"/>
      <point x="150" y="-11" type="curve" smooth="yes"/>
      <point x="226" y="-11"/>
      <point x="307" y="20"/>
    </contour>
    <contour>
      <point x="273" y="143" type="curve" smooth="yes"/>
      <point x="248" y="143"/>
      <point x="232" y="154"/>
      <point x="232" y="174" type="curve" smooth="yes"/>
      <point x="232" y="201"/>
      <point x="259" y="223"/>
      <point x="297" y="223" type="curve" smooth="yes"/>
      <point x="367" y="223" type="line"/>
      <point x="367" y="221" type="line" smooth="yes"/>
      <point x="359" y="180"/>
      <point x="317" y="143"/>
    </contour>
    <contour>
      <point x="551" y="0" type="move" name="ogonek"/>
    </contour>
    <contour>
      <point x="365" y="572" type="move" name="top"/>
    </contour>
  </outline>
</glyph>
<glyph name="b" format="1">
  <advance width="680"/>
  <unicode hex="0062"/>
  <outline>
    <contour>
      <point x="344" y="538"/>
      <point x="308" y="487" type="curve"/>
      <point x="353" y="740" type="line"/>
      <point x="131" y="740" type="line"/>
      <point x="0" y="0" type="line"/>
      <point x="222" y="0" type="line"/>
      <point x="236" y="77" type="line"/>
      <point x="254" y="26"/>
      <point x="301" y="-7"/>
      <point x="376" y="-7" type="curve"/>
      <point x="506" y="-7"/>
      <point x="628" y="100"/>
      <point x="660" y="282" type="curve"/>
      <point x="692" y="464"/>
      <point x="608" y="571"/>
      <point x="478" y="571" type="curve"/>
      <point x="403" y="571"/>
    </contour>
    <contour>
      <point x="446" y="344"/>
      <point x="435" y="282" type="curve"/>
      <point x="424" y="220"/>
      <point x="382" y="187"/>
      <point x="336" y="187" type="curve"/>
      <point x="290" y="187"/>
      <point x="260" y="220"/>
      <point x="271" y="282" type="curve"/>
      <point x="282" y="344"/>
      <point x="324" y="377"/>
      <point x="370" y="377" type="curve"/>
      <point x="416" y="377"/>
    </contour>
  </outline>
</glyph>
<glyph name="c" format="1">
  <advance width="597"/>
  <unicode hex="0063"/>
  <outline>
    <contour>
      <point x="52" y="462"/>
      <point x="20" y="282" type="curve"/>
      <point x="-12" y="102"/>
      <point x="88" y="-7"/>
      <point x="257" y="-7" type="curve" smooth="yes"/>
      <point x="402" y="-7"/>
      <point x="526" y="79"/>
      <point x="579" y="227" type="curve"/>
      <point x="344" y="227" type="line"/>
      <point x="332" y="200"/>
      <point x="314" y="183"/>
      <point x="286" y="183" type="curve" smooth="yes"/>
      <point x="252" y="183"/>
      <point x="233" y="214"/>
      <point x="245" y="282" type="curve"/>
      <point x="257" y="350"/>
      <point x="286" y="381"/>
      <point x="320" y="381" type="curve" smooth="yes"/>
      <point x="348" y="381"/>
      <point x="360" y="364"/>
      <point x="364" y="337" type="curve"/>
      <point x="599" y="337" type="line"/>
      <point x="598" y="485"/>
      <point x="504" y="571"/>
      <point x="359" y="571" type="curve" smooth="yes"/>
      <point x="190" y="571"/>
    </contour>
    <contour>
      <point x="249" y="0" type="move" name="bottom"/>
    </contour>
    <contour>
      <point x="349" y="564" type="move" name="top"/>
    </contour>
  </outline>
</glyph>
<glyph name="d" format="1">
  <advance width="680"/>
  <unicode hex="0064"/>
  <outline>
    <contour>
      <point x="52" y="464"/>
      <point x="20" y="282" type="curve"/>
      <point x="-12" y="100"/>
      <point x="72" y="-7"/>
      <point x="202" y="-7" type="curve"/>
      <point x="277" y="-7"/>
      <point x="336" y="26"/>
      <point x="372" y="77" type="curve"/>
      <point x="358" y="0" type="line"/>
      <point x="580" y="0" type="line"/>
      <point x="711" y="740" type="line"/>
      <point x="489" y="740" type="line"/>
      <point x="444" y="487" type="line"/>
      <point x="426" y="538"/>
      <point x="379" y="571"/>
      <point x="304" y="571" type="curve"/>
      <point x="174" y="571"/>
    </contour>
    <contour>
      <point x="420" y="344"/>
      <point x="409" y="282" type="curve"/>
      <point x="398" y="220"/>
      <point x="356" y="187"/>
      <point x="310" y="187" type="curve"/>
      <point x="264" y="187"/>
      <point x="234" y="220"/>
      <point x="245" y="282" type="curve"/>
      <point x="256" y="344"/>
      <point x="298" y="377"/>
      <point x="344" y="377" type="curve"/>
      <point x="390" y="377"/>
    </contour>
    <contour>
      <point x="711" y="740" type="move" name="topright"/>
    </contour>
  </outline>
</glyph>
<glyph name="f" format="1">
  <advance width="390"/>
  <unicode hex="0066"/>
  <outline>
    <contour>
      <point x="119" y="559" type="curve" smooth="yes"/>
      <point x="20" y="0" type="line"/>
      <point x="242" y="0" type="line"/>
      <point x="337" y="539" type="line" smooth="yes"/>
      <point x="347" y="595"/>
      <point x="372" y="611"/>
      <point x="432" y="604" type="curve"/>
      <point x="465" y="793" type="line"/>
      <point x="275" y="810"/>
      <point x="148" y="722"/>
    </contour>
    <contour>
      <point x="60" y="564" type="line"/>
      <point x="27" y="379" type="line"/>
      <point x="392" y="379" type="line"/>
      <point x="425" y="564" type="line"/>
    </contour>
  </outline>
</glyph>
<glyph name="h" format="1">
  <advance width="691"/>
  <unicode hex="0068"/>
  <outline>
    <contour>
      <point x="131" y="740" type="line"/>
      <point x="0" y="0" type="line"/>
      <point x="222" y="0" type="line"/>
      <point x="353" y="740" type="line"/>
    </contour>
    <contour>
      <point x="433" y="299" type="curve" smooth="yes"/>
      <point x="380" y="0" type="line"/>
      <point x="601" y="0" type="line"/>
      <point x="659" y="327" type="line" smooth="yes"/>
      <point x="685" y="473"/>
      <point x="625" y="568"/>
      <point x="495" y="568" type="curve" smooth="yes"/>
      <point x="395" y="568"/>
      <point x="324" y="511"/>
      <point x="287" y="451" type="curve"/>
      <point x="275" y="299" type="line"/>
      <point x="285" y="353"/>
      <point x="320" y="386"/>
      <point x="369" y="386" type="curve" smooth="yes"/>
      <point x="417" y="386"/>
      <point x="443" y="353"/>
    </contour>
  </outline>
</glyph>
<glyph name="i" format="1">
  <advance width="315"/>
  <unicode hex="0069"/>
  <outline>
    <contour>
      <point x="96" y="564" type="line"/>
      <point x="-4" y="0" type="line"/>
      <point x="218" y="0" type="line"/>
      <point x="318" y="564" type="line"/>
    </contour>
    <contour>
      <point x="137" y="609"/>
      <point x="216" y="609" type="curve" smooth="yes"/>
      <point x="294" y="609"/>
      <point x="351" y="657"/>
      <point x="362" y="718" type="curve" smooth="yes"/>
      <point x="373" y="780"/>
      <point x="332" y="829"/>
      <point x="254" y="829" type="curve" smooth="yes"/>
      <point x="175" y="829"/>
      <point x="118" y="780"/>
      <point x="107" y="718" type="curve" smooth="yes"/>
      <point x="96" y="657"/>
    </contour>
    <contour>
      <point x="218" y="-1" type="move" name="ogonek"/>
    </contour>
  </outline>
</glyph>
<glyph name="j" format="1">
  <advance width="308"/>
  <unicode hex="006A"/>
  <outline>
    <contour>
      <point x="130" y="609"/>
      <point x="209" y="609" type="curve" smooth="yes"/>
      <point x="287" y="609"/>
      <point x="344" y="657"/>
      <point x="355" y="718" type="curve" smooth="yes"/>
      <point x="366" y="780"/>
      <point x="325" y="829"/>
      <point x="247" y="829" type="curve" smooth="yes"/>
      <point x="168" y="829"/>
      <point x="111" y="780"/>
      <point x="100" y="718" type="curve" smooth="yes"/>
      <point x="89" y="657"/>
    </contour>
    <contour>
      <point x="313" y="564" type="line"/>
      <point x="91" y="564" type="line"/>
      <point x="-16" y="-43" type="line" smooth="yes"/>
      <point x="-21" y="-69"/>
      <point x="-35" y="-81"/>
      <point x="-64" y="-81" type="curve" smooth="yes"/>
      <point x="-107" y="-81" type="line"/>
      <point x="-140" y="-270" type="line"/>
      <point x="-66" y="-270" type="line" smooth="yes"/>
      <point x="66" y="-270"/>
      <point x="176" y="-214"/>
      <point x="206" y="-39" type="curve" smooth="yes"/>
    </contour>
  </outline>
</glyph>
<glyph name="k" format="1">
  <advance width="682"/>
  <unicode hex="006B"/>
  <outline>
    <contour>
      <point x="131" y="740" type="line"/>
      <point x="0" y="0" type="line"/>
      <point x="222" y="0" type="line"/>
      <point x="353" y="740" type="line"/>
    </contour>
    <contour>
      <point x="483" y="564" type="line"/>
      <point x="274" y="291" type="line"/>
      <point x="381" y="0" type="line"/>
      <point x="637" y="0" type="line"/>
      <point x="479" y="298" type="line"/>
      <point x="481" y="271" type="line"/>
      <point x="732" y="564" type="line"/>
    </contour>
    <contour>
      <point x="297" y="0" type="move" name="bottom"/>
    </contour>
  </outline>
</glyph>
<glyph name="l" format="1">
  <advance width="322"/>
  <unicode hex="006C"/>
  <outline>
    <contour>
      <point x="116" y="655" type="line"/>
      <point x="0" y="0" type="line"/>
      <point x="222" y="0" type="line"/>
      <point x="360" y="785" type="line"/>
    </contour>
    <contour>
      <point x="112" y="0" type="move" name="bottom"/>
    </contour>
    <contour>
      <point x="114" y="10" type="move" name="commaaccent"/>
    </contour>
    <contour>
      <point x="243" y="740" type="move" name="top"/>
    </contour>
    <contour>
      <point x="377" y="564" type="move" name="topright"/>
    </contour>
  </outline>
</glyph>
<glyph name="m" format="1">
  <advance width="1070"/>
  <unicode hex="006D"/>
  <outline>
    <contour>
      <point x="100" y="564" type="line"/>
      <point x="0" y="0" type="line"/>
      <point x="222" y="0" type="line"/>
      <point x="322" y="564" type="line"/>
    </contour>
    <contour>
      <point x="433" y="299" type="curve" smooth="yes"/>
      <point x="380" y="0" type="line"/>
      <point x="601" y="0" type="line"/>
      <point x="659" y="327" type="line" smooth="yes"/>
      <point x="685" y="473"/>
      <point x="616" y="568"/>
      <point x="485" y="568" type="curve" smooth="yes"/>
      <point x="390" y="568"/>
      <point x="323" y="516"/>
      <point x="289" y="461" type="curve"/>
      <point x="275" y="299" type="line"/>
      <point x="283" y="347"/>
      <point x="319" y="376"/>
      <point x="368" y="376" type="curve" smooth="yes"/>
      <point x="416" y="376"/>
      <point x="441" y="347"/>
    </contour>
    <contour>
      <point x="812" y="299" type="curve" smooth="yes"/>
      <point x="759" y="0" type="line"/>
      <point x="980" y="0" type="line"/>
      <point x="1038" y="327" type="line" smooth="yes"/>
      <point x="1064" y="473"/>
      <point x="999" y="568"/>
      <point x="853" y="568" type="curve" smooth="yes"/>
      <point x="751" y="568"/>
      <point x="665" y="497"/>
      <point x="621" y="427" type="curve"/>
      <point x="654" y="299" type="line"/>
      <point x="662" y="347"/>
      <point x="698" y="376"/>
      <point x="747" y="376" type="curve" smooth="yes"/>
      <point x="795" y="376"/>
      <point x="820" y="347"/>
    </contour>
  </outline>
</glyph>
<glyph name="n" format="1">
  <advance width="691"/>
  <unicode hex="006E"/>
  <outline>
    <contour>
      <point x="100" y="564" type="line"/>
      <point x="0" y="0" type="line"/>
      <point x="222" y="0" type="line"/>
      <point x="322" y="564" type="line"/>
    </contour>
    <contour>
      <point x="433" y="299" type="curve" smooth="yes"/>
      <point x="380" y="0" type="line"/>
      <point x="601" y="0" type="line"/>
      <point x="659" y="327" type="line" smooth="yes"/>
      <point x="685" y="473"/>
      <point x="625" y="568"/>
      <point x="495" y="568" type="curve" smooth="yes"/>
      <point x="395" y="568"/>
      <point x="324" y="511"/>
      <point x="287" y="451" type="curve"/>
      <point x="275" y="299" type="line"/>
      <point x="285" y="353"/>
      <point x="320" y="386"/>
      <point x="369" y="386" type="curve" smooth="yes"/>
      <point x="417" y="386"/>
      <point x="443" y="353"/>
    </contour>
    <contour>
      <point x="298" y="0" type="move" name="bottom"/>
    </contour>
    <contour>
      <point x="434" y="564" type="move" name="top"/>
    </contour>
  </outline>
</glyph>
<glyph name="o" format="1">
  <advance width="641"/>
  <unicode hex="006F"/>
  <outline>
    <contour>
      <point x="269" y="-7" type="curve" smooth="yes"/>
      <point x="472" y="-7"/>
      <point x="624" y="134"/>
      <point x="624" y="334" type="curve" smooth="yes"/>
      <point x="624" y="478"/>
      <point x="521" y="571"/>
      <point x="371" y="571" type="curve" smooth="yes"/>
      <point x="168" y="571"/>
      <point x="16" y="427"/>
      <point x="16" y="229" type="curve" smooth="yes"/>
      <point x="16" y="85"/>
      <point x="119" y="-7"/>
    </contour>
    <contour>
      <point x="303" y="185" type="curve"/>
      <point x="269" y="185"/>
      <point x="244" y="206"/>
      <point x="244" y="253" type="curve" smooth="yes"/>
      <point x="244" y="310"/>
      <point x="276" y="379"/>
      <point x="337" y="379" type="curve"/>
      <point x="370" y="379"/>
      <point x="396" y="358"/>
      <point x="396" y="311" type="curve" smooth="yes"/>
      <point x="396" y="254"/>
      <point x="364" y="185"/>
    </contour>
    <contour>
      <point x="371" y="571" type="move" name="top"/>
    </contour>
  </outline>
</glyph>
<glyph name="p" format="1">
  <advance width="680"/>
  <unicode hex="0070"/>
  <outline>
    <contour>
      <point x="344" y="538"/>
      <point x="308" y="487" type="curve"/>
      <point x="322" y="564" type="line"/>
      <point x="100" y="564" type="line"/>
      <point x="-47" y="-270" type="line"/>
      <point x="175" y="-270" type="line"/>
      <point x="236" y="77" type="line"/>
      <point x="254" y="26"/>
      <point x="301" y="-7"/>
      <point x="376" y="-7" type="curve"/>
      <point x="506" y="-7"/>
      <point x="628" y="100"/>
      <point x="660" y="282" type="curve"/>
      <point x="692" y="464"/>
      <point x="608" y="571"/>
      <point x="478" y="571" type="curve"/>
      <point x="403" y="571"/>
    </contour>
    <contour>
      <point x="446" y="344"/>
      <point x="435" y="282" type="curve"/>
      <point x="424" y="220"/>
      <point x="382" y="187"/>
      <point x="336" y="187" type="curve"/>
      <point x="290" y="187"/>
      <point x="260" y="220"/>
      <point x="271" y="282" type="curve"/>
      <point x="282" y="344"/>
      <point x="324" y="377"/>
      <point x="370" y="377" type="curve"/>
      <point x="416" y="377"/>
    </contour>
  </outline>
</glyph>
<glyph name="q" format="1">
  <advance width="680"/>
  <unicode hex="0071"/>
  <outline>
    <contour>
      <point x="49" y="448"/>
      <point x="19" y="278" type="curve" smooth="yes"/>
      <point x="-11" y="108"/>
      <point x="85" y="-6"/>
      <point x="218" y="-6" type="curve" smooth="yes"/>
      <point x="276" y="-6"/>
      <point x="322" y="16"/>
      <point x="370" y="62" type="curve"/>
      <point x="312" y="-270" type="line"/>
      <point x="533" y="-270" type="line"/>
      <point x="680" y="564" type="line"/>
      <point x="459" y="564" type="line"/>
      <point x="450" y="514" type="line"/>
      <point x="420" y="554"/>
      <point x="377" y="568"/>
      <point x="319" y="568" type="curve" smooth="yes"/>
      <point x="186" y="568"/>
    </contour>
    <contour>
      <point x="422" y="354"/>
      <point x="409" y="282" type="curve" smooth="yes"/>
      <point x="396" y="210"/>
      <point x="343" y="187"/>
      <point x="310" y="187" type="curve" smooth="yes"/>
      <point x="277" y="187"/>
      <point x="232" y="206"/>
      <point x="244" y="278" type="curve" smooth="yes"/>
      <point x="257" y="350"/>
      <point x="311" y="376"/>
      <point x="344" y="376" type="curve" smooth="yes"/>
      <point x="377" y="376"/>
    </contour>
  </outline>
</glyph>
<glyph name="r" format="1">
  <advance width="482"/>
  <unicode hex="0072"/>
  <outline>
    <contour>
      <point x="219" y="291" type="curve"/>
      <point x="263" y="231" type="line"/>
      <point x="277" y="308"/>
      <point x="323" y="331"/>
      <point x="403" y="331" type="curve" smooth="yes"/>
      <point x="466" y="331" type="line"/>
      <point x="507" y="568" type="line"/>
      <point x="377" y="568"/>
      <point x="243" y="428"/>
    </contour>
    <contour>
      <point x="100" y="564" type="line"/>
      <point x="0" y="0" type="line"/>
      <point x="222" y="0" type="line"/>
      <point x="322" y="564" type="line"/>
    </contour>
    <contour>
      <point x="105" y="0" type="move" name="bottom"/>
    </contour>
    <contour>
      <point x="325" y="564" type="move" name="top"/>
    </contour>
  </outline>
</glyph>
<glyph name="s" format="1">
  <advance width="564"/>
  <unicode hex="0073"/>
  <outline>
    <contour>
      <point x="260" y="-7" type="curve" smooth="yes"/>
      <point x="414" y="-7"/>
      <point x="528" y="58"/>
      <point x="528" y="177" type="curve" smooth="yes"/>
      <point x="528" y="350"/>
      <point x="246" y="330"/>
      <point x="246" y="391" type="curve" smooth="yes"/>
      <point x="246" y="408"/>
      <point x="264" y="417"/>
      <point x="286" y="417" type="curve"/>
      <point x="322" y="417"/>
      <point x="341" y="399"/>
      <point x="341" y="369" type="curve"/>
      <point x="538" y="369" type="line"/>
      <point x="542" y="480"/>
      <point x="453" y="571"/>
      <point x="287" y="571" type="curve" smooth="yes"/>
      <point x="138" y="571"/>
      <point x="42" y="492"/>
      <point x="42" y="391" type="curve" smooth="yes"/>
      <point x="42" y="205"/>
      <point x="320" y="237"/>
      <point x="320" y="173" type="curve" smooth="yes"/>
      <point x="320" y="158"/>
      <point x="301" y="146"/>
      <point x="278" y="146" type="curve" smooth="yes"/>
      <point x="244" y="146"/>
      <point x="220" y="161"/>
      <point x="221" y="195" type="curve"/>
      <point x="8" y="195" type="line"/>
      <point x="-12" y="75"/>
      <point x="98" y="-7"/>
    </contour>
    <contour>
      <point x="254" y="0" type="move" name="bottom"/>
    </contour>
    <contour>
      <point x="354" y="564" type="move" name="top"/>
    </contour>
  </outline>
</glyph>
<glyph name="t" format="1">
  <advance width="441"/>
  <unicode hex="0074"/>
  <outline>
    <contour>
      <point x="150" y="646" type="line"/>
      <point x="76" y="231" type="line" smooth="yes"/>
      <point x="45" y="56"/>
      <point x="135" y="0"/>
      <point x="267" y="0" type="curve" smooth="yes"/>
      <point x="351" y="0" type="line"/>
      <point x="385" y="189" type="line"/>
      <point x="332" y="189" type="line" smooth="yes"/>
      <point x="303" y="189"/>
      <point x="292" y="201"/>
      <point x="297" y="227" type="curve" smooth="yes"/>
      <point x="394" y="775" type="line"/>
    </contour>
    <contour>
      <point x="32" y="379" type="line"/>
      <point x="416" y="379" type="line"/>
      <point x="449" y="564" type="line"/>
      <point x="65" y="564" type="line"/>
    </contour>
    <contour>
      <point x="177" y="0" type="move" name="bottom"/>
    </contour>
    <contour>
      <point x="399" y="942" type="move" name="topright"/>
    </contour>
  </outline>
</glyph>
<glyph name="u" format="1">
  <advance width="693"/>
  <unicode hex="0075"/>
  <outline>
    <contour>
      <point x="593" y="0" type="line"/>
      <point x="693" y="564" type="line"/>
      <point x="471" y="564" type="line"/>
      <point x="371" y="0" type="line"/>
    </contour>
    <contour>
      <point x="260" y="265" type="curve" smooth="yes"/>
      <point x="313" y="564" type="line"/>
      <point x="92" y="564" type="line"/>
      <point x="34" y="237" type="line" smooth="yes"/>
      <point x="8" y="91"/>
      <point x="68" y="-4"/>
      <point x="198" y="-4" type="curve" smooth="yes"/>
      <point x="298" y="-4"/>
      <point x="369" y="53"/>
      <point x="406" y="113" type="curve"/>
      <point x="418" y="265" type="line"/>
      <point x="408" y="211"/>
      <point x="373" y="178"/>
      <point x="324" y="178" type="curve" smooth="yes"/>
      <point x="276" y="178"/>
      <point x="250" y="211"/>
    </contour>
    <contour>
      <point x="593" y="-3" type="move" name="ogonek"/>
    </contour>
    <contour>
      <point x="395" y="564" type="move" name="top"/>
    </contour>
  </outline>
</glyph>
<glyph name="v" format="1">
  <advance width="658"/>
  <unicode hex="0076"/>
  <outline>
    <contour>
      <point x="286" y="564" type="line"/>
      <point x="50" y="564" type="line"/>
      <point x="112" y="0" type="line"/>
      <point x="442" y="0" type="line"/>
      <point x="703" y="564" type="line"/>
      <point x="467" y="564" type="line"/>
      <point x="268" y="40" type="line"/>
      <point x="295" y="40" type="line"/>
    </contour>
  </outline>
</glyph>
<glyph name="w" format="1">
  <advance width="912"/>
  <unicode hex="0077"/>
  <outline>
    <contour>
      <point x="50" y="564" type="line"/>
      <point x="82" y="0" type="line"/>
      <point x="360" y="0" type="line"/>
      <point x="500" y="409" type="line"/>
      <point x="472" y="409" type="line"/>
      <point x="461" y="0" type="line"/>
      <point x="764" y="0" type="line"/>
      <point x="957" y="564" type="line"/>
      <point x="752" y="564" type="line"/>
      <point x="617" y="72" type="line"/>
      <point x="627" y="72" type="line"/>
      <point x="627" y="564" type="line"/>
      <point x="390" y="564" type="line"/>
      <point x="221" y="72" type="line"/>
      <point x="231" y="72" type="line"/>
      <point x="270" y="564" type="line"/>
    </contour>
  </outline>
</glyph>
<glyph name="x" format="1">
  <advance width="668"/>
  <unicode hex="0078"/>
  <outline>
    <contour>
      <point x="50" y="564" type="line"/>
      <point x="370" y="0" type="line"/>
      <point x="618" y="0" type="line"/>
      <point x="298" y="564" type="line"/>
    </contour>
    <contour>
      <point x="361" y="213" type="line"/>
      <point x="265" y="375" type="line"/>
      <point x="-40" y="0" type="line"/>
      <point x="204" y="0" type="line"/>
    </contour>
    <contour>
      <point x="322" y="371" type="line"/>
      <point x="407" y="209" type="line"/>
      <point x="709" y="564" type="line"/>
      <point x="465" y="564" type="line"/>
    </contour>
  </outline>
</glyph>
<glyph name="y" format="1">
  <advance width="692"/>
  <unicode hex="0079"/>
  <outline>
    <contour>
      <point x="40" y="564" type="line"/>
      <point x="180" y="28" type="line"/>
      <point x="-14" y="-270" type="line"/>
      <point x="229" y="-270" type="line"/>
      <point x="737" y="564" type="line"/>
      <point x="492" y="564" type="line"/>
      <point x="342" y="278" type="line"/>
      <point x="287" y="564" type="line"/>
    </contour>
    <contour>
      <point x="389" y="564" type="move" name="top"/>
    </contour>
  </outline>
</glyph>
<glyph name="z" format="1">
  <advance width="518"/>
  <unicode hex="007A"/>
  <outline>
    <contour>
      <point x="507" y="390" type="line"/>
      <point x="538" y="564" type="line"/>
      <point x="73" y="564" type="line"/>
      <point x="40" y="380" type="line"/>
      <point x="252" y="380" type="line"/>
      <point x="1" y="174" type="line"/>
      <point x="-30" y="0" type="line"/>
      <point x="448" y="0" type="line"/>
      <point x="481" y="184" type="line"/>
      <point x="246" y="184" type="line"/>
    </contour>
    <contour>
      <point x="316" y="564" type="move" name="top"/>
    </contour>
  </outline>
</glyph>
<glyph name="bar" format="1">
  <advance width="262"/>
  <unicode hex="007C"/>
  <outline>
    <contour>
      <point x="338" y="828" type="line"/>
      <point x="116" y="828" type="line"/>
      <point x="-55" y="-144" type="line"/>
      <point x="167" y="-144" type="line"/>
    </contour>
  </outline>
</glyph>
<glyph name="brokenbar" format="1">
  <advance width="432"/>
  <unicode hex="00A6"/>
  <outline>
    <contour>
      <point x="328" y="287" type="line"/>
      <point x="106" y="287" type="line"/>
      <point x="30" y="-144" type="line"/>
      <point x="252" y="-144" type="line"/>
    </contour>
    <contour>
      <point x="125" y="398" type="line"/>
      <point x="347" y="398" type="line"/>
      <point x="423" y="828" type="line"/>
      <point x="201" y="828" type="line"/>
    </contour>
  </outline>
</glyph>
<glyph name="dieresis" format="1">
  <advance width="417"/>
  <unicode hex="00A8"/>
  <outline>
    <contour>
      <point x="92" y="609"/>
      <point x="138" y="609" type="curve" smooth="yes"/>
      <point x="199" y="609"/>
      <point x="252" y="658"/>
      <point x="252" y="720" type="curve" smooth="yes"/>
      <point x="252" y="766"/>
      <point x="221" y="798"/>
      <point x="171" y="798" type="curve" smooth="yes"/>
      <point x="113" y="798"/>
      <point x="59" y="749"/>
      <point x="59" y="685" type="curve" smooth="yes"/>
      <point x="59" y="641"/>
    </contour>
    <contour>
      <point x="340" y="609"/>
      <point x="386" y="609" type="curve" smooth="yes"/>
      <point x="446" y="609"/>
      <point x="499" y="658"/>
      <point x="499" y="720" type="curve" smooth="yes"/>
      <point x="499" y="766"/>
      <point x="468" y="798"/>
      <point x="419" y="798" type="curve" smooth="yes"/>
      <point x="360" y="798"/>
      <point x="307" y="749"/>
      <point x="307" y="685" type="curve" smooth="yes"/>
      <point x="307" y="641"/>
    </contour>
    <contour>
      <point x="259" y="564" type="move" name="_top"/>
    </contour>
  </outline>
</glyph>
<glyph name="guillemotleft" format="1">
  <advance width="618"/>
  <unicode hex="00AB"/>
  <outline>
    <contour>
      <point x="294" y="120" type="line"/>
      <point x="246" y="295" type="line"/>
      <point x="356" y="470" type="line"/>
      <point x="155" y="470" type="line"/>
      <point x="47" y="295" type="line"/>
      <point x="93" y="120" type="line"/>
    </contour>
    <contour>
      <point x="549" y="120" type="line"/>
      <point x="501" y="295" type="line"/>
      <point x="611" y="470" type="line"/>
      <point x="410" y="470" type="line"/>
      <point x="302" y="295" type="line"/>
      <point x="348" y="120" type="line"/>
    </contour>
  </outline>
</glyph>
<glyph name="macron" format="1">
  <advance width="451"/>
  <unicode hex="00AF"/>
  <outline>
    <contour>
      <point x="96" y="769" type="line"/>
      <point x="70" y="622" type="line"/>
      <point x="501" y="622" type="line"/>
      <point x="527" y="769" type="line"/>
    </contour>
    <contour>
      <point x="275" y="564" type="move" name="_top"/>
    </contour>
  </outline>
</glyph>
<glyph name="acute" format="1">
  <advance width="279"/>
  <unicode hex="00B4"/>
  <outline>
    <contour>
      <point x="382" y="860" type="line"/>
      <point x="84" y="742" type="line"/>
      <point x="55" y="584" type="line"/>
      <point x="351" y="685" type="line"/>
    </contour>
    <contour>
      <point x="191" y="564" type="move" name="_top"/>
    </contour>
  </outline>
</glyph>
<glyph name="onesuperior" format="1">
  <advance width="285"/>
  <unicode hex="00B9"/>
  <outline>
    <contour>
      <point x="138" y="577" type="line"/>
      <point x="98" y="352" type="line"/>
      <point x="262" y="352" type="line"/>
      <point x="324" y="704" type="line"/>
      <point x="94" y="704" type="line"/>
      <point x="72" y="577" type="line"/>
    </contour>
  </outline>
</glyph>
<glyph name="onequarter" format="1">
  <advance width="879"/>
  <unicode hex="00BC"/>
  <outline>
    <contour>
      <point x="573" y="708" type="line"/>
      <point x="60" y="0" type="line"/>
      <point x="277" y="0" type="line"/>
      <point x="789" y="708" type="line"/>
    </contour>
    <contour>
      <point x="833" y="146" type="line"/>
      <point x="798" y="146" type="line"/>
      <point x="834" y="351" type="line"/>
      <point x="607" y="351" type="line"/>
      <point x="429" y="142" type="line"/>
      <point x="415" y="58" type="line"/>
      <point x="618" y="58" type="line"/>
      <point x="607" y="0" type="line"/>
      <point x="772" y="0" type="line"/>
      <point x="783" y="58" type="line"/>
      <point x="818" y="58" type="line"/>
    </contour>
    <contour>
      <point x="643" y="151" type="line"/>
      <point x="584" y="151" type="line"/>
      <point x="660" y="250" type="line"/>
    </contour>
    <component base="onesuperior" xOffset="25"/>
  </outline>
</glyph>
<glyph name="onehalf" format="1">
  <advance width="928"/>
  <unicode hex="00BD"/>
  <outline>
    <contour>
      <point x="584" y="711" type="line"/>
      <point x="60" y="0" type="line"/>
      <point x="277" y="0" type="line"/>
      <point x="800" y="711" type="line"/>
    </contour>
    <component base="onesuperior" xOffset="25"/>
    <component base="twosuperior" xOffset="454" yOffset="-353"/>
  </outline>
</glyph>
<glyph name="AE" format="1">
  <advance width="986"/>
  <unicode hex="00C6"/>
  <outline>
    <contour>
      <point x="245" y="264" type="line"/>
      <point x="122" y="97" type="line"/>
      <point x="565" y="97" type="line"/>
      <point x="595" y="264" type="line"/>
    </contour>
    <contour>
      <point x="756" y="532" type="line"/>
      <point x="996" y="532" type="line"/>
      <point x="1027" y="708" type="line"/>
      <point x="414" y="708" type="line"/>
      <point x="-50" y="0" type="line"/>
      <point x="191" y="0" type="line"/>
      <point x="535" y="537" type="line"/>
      <point x="440" y="0" type="line"/>
      <point x="902" y="0" type="line"/>
      <point x="933" y="177" type="line"/>
      <point x="693" y="177" type="line"/>
      <point x="712" y="280" type="line"/>
      <point x="922" y="280" type="line"/>
      <point x="951" y="447" type="line"/>
      <point x="741" y="447" type="line"/>
    </contour>
  </outline>
</glyph>
<glyph name="multiply" format="1">
  <advance width="581"/>
  <unicode hex="00D7"/>
  <outline>
    <contour>
      <point x="229" y="612" type="line"/>
      <point x="57" y="467" type="line"/>
      <point x="378" y="78" type="line"/>
      <point x="551" y="223" type="line"/>
    </contour>
    <contour>
      <point x="9" y="221" type="line"/>
      <point x="127" y="79" type="line"/>
      <point x="583" y="470" type="line"/>
      <point x="464" y="612" type="line"/>
    </contour>
  </outline>
</glyph>
<glyph name="Oslash" format="1">
  <advance width="788"/>
  <unicode hex="00D8"/>
  <outline>
    <contour>
      <point x="730" y="712" type="line"/>
      <point x="-32" y="1" type="line"/>
      <point x="84" y="1" type="line"/>
      <point x="845" y="712" type="line"/>
    </contour>
    <component base="O" xOffset="-1"/>
  </outline>
</glyph>
<glyph name="ae" format="1">
  <advance width="976"/>
  <unicode hex="00E6"/>
  <outline>
    <contour>
      <point x="502" y="131" type="curve" smooth="yes"/>
      <point x="589" y="219" type="line"/>
      <point x="608" y="329" type="line" smooth="yes"/>
      <point x="611" y="348"/>
      <point x="612" y="360"/>
      <point x="612" y="374" type="curve" smooth="yes"/>
      <point x="612" y="496"/>
      <point x="522" y="572"/>
      <point x="369" y="572" type="curve" smooth="yes"/>
      <point x="199" y="572"/>
      <point x="89" y="479"/>
      <point x="46" y="354" type="curve"/>
      <point x="270" y="354" type="line"/>
      <point x="282" y="375"/>
      <point x="303" y="394"/>
      <point x="336" y="394" type="curve" smooth="yes"/>
      <point x="367" y="394"/>
      <point x="387" y="377"/>
      <point x="387" y="346" type="curve" smooth="yes"/>
      <point x="387" y="340"/>
      <point x="386" y="337"/>
      <point x="385" y="334" type="curve"/>
      <point x="288" y="334" type="line" smooth="yes"/>
      <point x="129" y="334"/>
      <point x="0" y="253"/>
      <point x="0" y="126" type="curve" smooth="yes"/>
      <point x="0" y="38"/>
      <point x="72" y="-11"/>
      <point x="175" y="-11" type="curve" smooth="yes"/>
      <point x="266" y="-11"/>
      <point x="372" y="0"/>
    </contour>
    <contour>
      <point x="272" y="143" type="curve" smooth="yes"/>
      <point x="247" y="143"/>
      <point x="231" y="154"/>
      <point x="231" y="174" type="curve" smooth="yes"/>
      <point x="231" y="201"/>
      <point x="258" y="223"/>
      <point x="296" y="223" type="curve" smooth="yes"/>
      <point x="366" y="223" type="line"/>
      <point x="366" y="221" type="line" smooth="yes"/>
      <point x="366" y="179"/>
      <point x="316" y="143"/>
    </contour>
    <contour>
      <point x="587" y="334" type="line"/>
      <point x="571" y="243" type="line"/>
      <point x="948" y="243" type="line"/>
      <point x="953" y="257"/>
      <point x="956" y="273"/>
      <point x="959" y="287" type="curve"/>
      <point x="990" y="464"/>
      <point x="890" y="571"/>
      <point x="721" y="571" type="curve" smooth="yes"/>
      <point x="552" y="571"/>
      <point x="414" y="462"/>
      <point x="382" y="282" type="curve"/>
      <point x="350" y="107"/>
      <point x="448" y="-7"/>
      <point x="615" y="-7" type="curve" smooth="yes"/>
      <point x="761" y="-7"/>
      <point x="885" y="80"/>
      <point x="932" y="203" type="curve"/>
      <point x="697" y="203" type="line"/>
      <point x="686" y="186"/>
      <point x="668" y="170"/>
      <point x="639" y="170" type="curve" smooth="yes"/>
      <point x="603" y="170"/>
      <point x="583" y="193"/>
      <point x="594" y="258" type="curve" smooth="yes"/>
      <point x="603" y="311" type="line" smooth="yes"/>
      <point x="613" y="370"/>
      <point x="645" y="397"/>
      <point x="690" y="397" type="curve"/>
      <point x="723" y="397"/>
      <point x="750" y="382"/>
      <point x="742" y="334" type="curve"/>
    </contour>
  </outline>
</glyph>
<glyph name="divide" format="1">
  <advance width="551"/>
  <unicode hex="00F7"/>
  <outline>
    <contour>
      <point x="48" y="441" type="line"/>
      <point x="13" y="240" type="line"/>
      <point x="524" y="240" type="line"/>
      <point x="559" y="441" type="line"/>
    </contour>
    <component base="period" xOffset="98"/>
    <component base="period" xOffset="208" yOffset="475"/>
  </outline>
</glyph>
<glyph name="oslash" format="1">
  <advance width="621"/>
  <unicode hex="00F8"/>
  <outline>
    <contour>
      <point x="568" y="564" type="line"/>
      <point x="-50" y="0" type="line"/>
      <point x="53" y="0" type="line"/>
      <point x="671" y="564" type="line"/>
    </contour>
    <component base="o" xOffset="-8"/>
  </outline>
</glyph>
<glyph name="Aogonek" format="1">
  <advance width="773"/>
  <unicode hex="0104"/>
  <outline>
    <contour>
      <point x="700" y="105" type="line"/>
      <point x="660" y="90" type="line" smooth="yes"/>
      <point x="493" y="27"/>
      <point x="445" y="-26"/>
      <point x="432" y="-97" type="curve" smooth="yes"/>
      <point x="418" y="-177"/>
      <point x="470" y="-223"/>
      <point x="570" y="-223" type="curve" smooth="yes"/>
      <point x="613" y="-223"/>
      <point x="652" y="-217"/>
      <point x="687" y="-207" type="curve"/>
      <point x="707" y="-91" type="line"/>
      <point x="672" y="-102"/>
      <point x="644" y="-107"/>
      <point x="622" y="-107" type="curve" smooth="yes"/>
      <point x="598" y="-107"/>
      <point x="587" y="-98"/>
      <point x="590" y="-82" type="curve" smooth="yes"/>
      <point x="593" y="-66"/>
      <point x="608" y="-46"/>
      <point x="676" y="-19" type="curve" smooth="yes"/>
      <point x="723" y="0" type="line"/>
    </contour>
    <component base="A"/>
    <contour>
      <point x="723" y="0" type="move" name="_ogonek"/>
    </contour>
  </outline>
</glyph>
<glyph name="dcroat" format="1">
  <advance width="704"/>
  <unicode hex="0111"/>
  <outline>
    <contour>
      <point x="421" y="688" type="line"/>
      <point x="404" y="592" type="line"/>
      <point x="749" y="592" type="line"/>
      <point x="766" y="688" type="line"/>
    </contour>
    <component base="d"/>
  </outline>
</glyph>
<glyph name="Gcommaaccent" format="1">
  <advance width="756"/>
  <unicode hex="0122"/>
  <outline>
    <contour>
      <point x="398" y="-35" type="curve"/>
      <point x="242" y="-35" type="line"/>
      <point x="216" y="-182" type="line"/>
      <point x="288" y="-182" type="line"/>
      <point x="286" y="-193" type="line" smooth="yes"/>
      <point x="277" y="-245"/>
      <point x="253" y="-268"/>
      <point x="218" y="-268" type="curve"/>
      <point x="204" y="-346" type="line"/>
      <point x="318" y="-346"/>
      <point x="383" y="-266"/>
      <point x="400" y="-170" type="curve" smooth="yes"/>
      <point x="408" y="-128"/>
      <point x="408" y="-82"/>
    </contour>
    <component base="G"/>
    <contour>
      <point x="328" y="0" type="move" name="_bottom"/>
    </contour>
  </outline>
</glyph>
<glyph name="gcommaaccent" format="1">
  <advance width="680"/>
  <unicode hex="0123"/>
  <outline>
    <contour>
      <point x="338" y="599" type="curve"/>
      <point x="494" y="599" type="line"/>
      <point x="520" y="746" type="line"/>
      <point x="448" y="746" type="line"/>
      <point x="450" y="757" type="line" smooth="yes"/>
      <point x="459" y="809"/>
      <point x="484" y="832"/>
      <point x="518" y="832" type="curve"/>
      <point x="532" y="910" type="line"/>
      <point x="419" y="910"/>
      <point x="354" y="830"/>
      <point x="337" y="734" type="curve" smooth="yes"/>
      <point x="329" y="692"/>
      <point x="328" y="646"/>
    </contour>
    <component base="g"/>
  </outline>
</glyph>
<glyph name="dotlessi" format="1">
  <advance width="372"/>
  <unicode hex="0131"/>
  <outline>
    <contour>
      <point x="125" y="564" type="line"/>
      <point x="25" y="0" type="line"/>
      <point x="247" y="0" type="line"/>
      <point x="347" y="564" type="line"/>
    </contour>
    <contour>
      <point x="287" y="10" type="move" name="ogonek"/>
    </contour>
    <contour>
      <point x="237" y="564" type="move" name="top"/>
    </contour>
  </outline>
</glyph>
<glyph name="Lcommaaccent" format="1">
  <advance width="511"/>
  <unicode hex="013B"/>
  <outline>
    <contour>
      <point x="310" y="-35" type="curve"/>
      <point x="154" y="-35" type="line"/>
      <point x="128" y="-182" type="line"/>
      <point x="200" y="-182" type="line"/>
      <point x="198" y="-193" type="line" smooth="yes"/>
      <point x="189" y="-245"/>
      <point x="165" y="-268"/>
      <point x="130" y="-268" type="curve"/>
      <point x="116" y="-346" type="line"/>
      <point x="230" y="-346"/>
      <point x="295" y="-266"/>
      <point x="312" y="-170" type="curve" smooth="yes"/>
      <point x="320" y="-128"/>
      <point x="320" y="-82"/>
    </contour>
    <component base="L"/>
    <contour>
      <point x="242" y="10" type="move" name="_commaaccent"/>
    </contour>
  </outline>
</glyph>
<glyph name="Ldot" format="1">
  <advance width="506"/>
  <unicode hex="013F"/>
  <outline>
    <contour>
      <point x="0" y="0" type="line"/>
      <point x="436" y="0" type="line"/>
      <point x="466" y="168" type="line"/>
      <point x="252" y="168" type="line"/>
      <point x="347" y="708" type="line"/>
      <point x="125" y="708" type="line"/>
    </contour>
    <contour>
      <point x="421" y="322" type="curve" smooth="yes"/>
      <point x="471" y="322"/>
      <point x="514" y="359"/>
      <point x="523" y="407" type="curve" smooth="yes"/>
      <point x="532" y="457"/>
      <point x="501" y="494"/>
      <point x="451" y="494" type="curve" smooth="yes"/>
      <point x="403" y="494"/>
      <point x="359" y="457"/>
      <point x="351" y="407" type="curve" smooth="yes"/>
      <point x="343" y="359"/>
      <point x="373" y="322"/>
    </contour>
  </outline>
</glyph>
<glyph name="Ncommaaccent" format="1">
  <advance width="829"/>
  <unicode hex="0145"/>
  <outline>
    <contour>
      <point x="434" y="-35" type="curve"/>
      <point x="278" y="-35" type="line"/>
      <point x="252" y="-182" type="line"/>
      <point x="324" y="-182" type="line"/>
      <point x="322" y="-193" type="line" smooth="yes"/>
      <point x="313" y="-245"/>
      <point x="289" y="-268"/>
      <point x="254" y="-268" type="curve"/>
      <point x="240" y="-346" type="line"/>
      <point x="354" y="-346"/>
      <point x="419" y="-266"/>
      <point x="436" y="-170" type="curve" smooth="yes"/>
      <point x="444" y="-128"/>
      <point x="444" y="-82"/>
    </contour>
    <component base="N"/>
    <contour>
      <point x="364" y="0" type="move" name="_bottom"/>
    </contour>
  </outline>
</glyph>
<glyph name="ncommaaccent" format="1">
  <advance width="697"/>
  <unicode hex="0146"/>
  <outline>
    <contour>
      <point x="393" y="-35" type="curve"/>
      <point x="237" y="-35" type="line"/>
      <point x="211" y="-182" type="line"/>
      <point x="283" y="-182" type="line"/>
      <point x="281" y="-193" type="line" smooth="yes"/>
      <point x="272" y="-245"/>
      <point x="247" y="-268"/>
      <point x="213" y="-268" type="curve"/>
      <point x="199" y="-346" type="line"/>
      <point x="312" y="-346"/>
      <point x="377" y="-266"/>
      <point x="394" y="-170" type="curve" smooth="yes"/>
      <point x="402" y="-128"/>
      <point x="403" y="-82"/>
    </contour>
    <component base="n"/>
  </outline>
</glyph>
<glyph name="OE" format="1">
  <advance width="1060"/>
  <unicode hex="0152"/>
  <outline>
    <contour>
      <point x="814" y="532" type="line"/>
      <point x="1064" y="532" type="line"/>
      <point x="1095" y="708" type="line"/>
      <point x="623" y="708" type="line"/>
      <point x="617" y="671" type="line"/>
      <point x="578" y="704"/>
      <point x="519" y="720"/>
      <point x="460" y="720" type="curve" smooth="yes"/>
      <point x="258" y="720"/>
      <point x="86" y="569"/>
      <point x="48" y="354" type="curve"/>
      <point x="10" y="139"/>
      <point x="129" y="-12"/>
      <point x="331" y="-12" type="curve" smooth="yes"/>
      <point x="391" y="-9"/>
      <point x="455" y="4"/>
      <point x="505" y="37" type="curve"/>
      <point x="498" y="0" type="line"/>
      <point x="970" y="0" type="line"/>
      <point x="1001" y="177" type="line"/>
      <point x="751" y="177" type="line"/>
      <point x="769" y="277" type="line"/>
      <point x="989" y="277" type="line"/>
      <point x="1019" y="444" type="line"/>
      <point x="799" y="444" type="line"/>
    </contour>
    <contour>
      <point x="274" y="354" type="curve"/>
      <point x="291" y="452"/>
      <point x="350" y="515"/>
      <point x="441" y="515" type="curve" smooth="yes"/>
      <point x="530" y="515"/>
      <point x="568" y="452"/>
      <point x="551" y="354" type="curve"/>
      <point x="533" y="256"/>
      <point x="473" y="193"/>
      <point x="384" y="193" type="curve" smooth="yes"/>
      <point x="293" y="193"/>
      <point x="256" y="256"/>
    </contour>
  </outline>
</glyph>
<glyph name="oe" format="1">
  <advance width="1022"/>
  <unicode hex="0153"/>
  <outline>
    <contour>
      <point x="403" y="349"/>
      <point x="391" y="282" type="curve"/>
      <point x="379" y="215"/>
      <point x="340" y="185"/>
      <point x="301" y="185" type="curve"/>
      <point x="261" y="185"/>
      <point x="233" y="215"/>
      <point x="245" y="282" type="curve"/>
      <point x="257" y="349"/>
      <point x="296" y="379"/>
      <point x="335" y="379" type="curve"/>
      <point x="374" y="379"/>
    </contour>
    <contour>
      <point x="52" y="462"/>
      <point x="20" y="282" type="curve"/>
      <point x="-12" y="102"/>
      <point x="97" y="-7"/>
      <point x="267" y="-7" type="curve"/>
      <point x="339" y="-7"/>
      <point x="408" y="13"/>
      <point x="464" y="49" type="curve"/>
      <point x="507" y="13"/>
      <point x="565" y="-7"/>
      <point x="637" y="-7" type="curve" smooth="yes"/>
      <point x="779" y="-7"/>
      <point x="905" y="83"/>
      <point x="950" y="203" type="curve"/>
      <point x="715" y="203" type="line"/>
      <point x="704" y="186"/>
      <point x="686" y="170"/>
      <point x="657" y="170" type="curve" smooth="yes"/>
      <point x="624" y="170"/>
      <point x="599" y="185"/>
      <point x="612" y="258" type="curve" smooth="yes"/>
      <point x="621" y="311" type="line" smooth="yes"/>
      <point x="632" y="370"/>
      <point x="663" y="397"/>
      <point x="708" y="397" type="curve"/>
      <point x="741" y="397"/>
      <point x="768" y="379"/>
      <point x="760" y="334" type="curve"/>
      <point x="585" y="334" type="line"/>
      <point x="569" y="243" type="line"/>
      <point x="964" y="243" type="line"/>
      <point x="970" y="257"/>
      <point x="974" y="273"/>
      <point x="977" y="287" type="curve"/>
      <point x="1008" y="464"/>
      <point x="908" y="571"/>
      <point x="739" y="571" type="curve"/>
      <point x="667" y="571"/>
      <point x="601" y="551"/>
      <point x="546" y="515" type="curve"/>
      <point x="502" y="551"/>
      <point x="441" y="571"/>
      <point x="369" y="571" type="curve"/>
      <point x="199" y="571"/>
    </contour>
  </outline>
</glyph>
<glyph name="tcaron" format="1">
  <advance width="436"/>
  <unicode hex="0165"/>
  <outline>
    <contour>
      <point x="601" y="890" type="curve"/>
      <point x="445" y="890" type="line"/>
      <point x="419" y="744" type="line"/>
      <point x="491" y="744" type="line"/>
      <point x="488" y="727" type="line" smooth="yes"/>
      <point x="484" y="701"/>
      <point x="462" y="688"/>
      <point x="427" y="688" type="curve"/>
      <point x="413" y="609" type="line"/>
      <point x="527" y="609"/>
      <point x="590" y="678"/>
      <point x="605" y="766" type="curve" smooth="yes"/>
      <point x="613" y="808"/>
      <point x="611" y="844"/>
    </contour>
    <component base="t"/>
  </outline>
</glyph>
<glyph name="scommaaccent" format="1">
  <advance width="579"/>
  <unicode hex="0219"/>
  <outline>
    <contour>
      <point x="308" y="-35" type="curve"/>
      <point x="152" y="-35" type="line"/>
      <point x="126" y="-182" type="line"/>
      <point x="198" y="-182" type="line"/>
      <point x="196" y="-193" type="line" smooth="yes"/>
      <point x="187" y="-245"/>
      <point x="162" y="-268"/>
      <point x="128" y="-268" type="curve"/>
      <point x="114" y="-346" type="line"/>
      <point x="227" y="-346"/>
      <point x="292" y="-266"/>
      <point x="309" y="-170" type="curve" smooth="yes"/>
      <point x="317" y="-128"/>
      <point x="318" y="-82"/>
    </contour>
    <component base="s"/>
  </outline>
</glyph>
<glyph name="Tcommaaccent" format="1">
  <advance width="616"/>
  <unicode hex="021A"/>
  <outline>
    <contour>
      <point x="329" y="-35" type="curve"/>
      <point x="173" y="-35" type="line"/>
      <point x="147" y="-182" type="line"/>
      <point x="219" y="-182" type="line"/>
      <point x="217" y="-193" type="line" smooth="yes"/>
      <point x="208" y="-245"/>
      <point x="183" y="-268"/>
      <point x="149" y="-268" type="curve"/>
      <point x="135" y="-346" type="line"/>
      <point x="248" y="-346"/>
      <point x="313" y="-266"/>
      <point x="330" y="-170" type="curve" smooth="yes"/>
      <point x="338" y="-128"/>
      <point x="339" y="-82"/>
    </contour>
    <component base="T"/>
  </outline>
</glyph>
<glyph name="circumflex" format="1">
  <advance width="351"/>
  <unicode hex="02C6"/>
  <outline>
    <contour>
      <point x="406" y="578" type="line"/>
      <point x="432" y="732" type="line"/>
      <point x="272" y="823" type="line"/>
      <point x="78" y="732" type="line"/>
      <point x="52" y="578" type="line"/>
      <point x="245" y="672" type="line"/>
    </contour>
    <contour>
      <point x="226" y="564" type="move" name="_top"/>
    </contour>
  </outline>
</glyph>
<glyph name="caron" format="1">
  <advance width="351"/>
  <unicode hex="02C7"/>
  <outline>
    <contour>
      <point x="436" y="821" type="line"/>
      <point x="256" y="733" type="line"/>
      <point x="105" y="821" type="line"/>
      <point x="80" y="677" type="line"/>
      <point x="231" y="592" type="line"/>
      <point x="411" y="677" type="line"/>
    </contour>
    <contour>
      <point x="226" y="564" type="move" name="_top"/>
    </contour>
  </outline>
</glyph>
<glyph name="breve" format="1">
  <advance width="395"/>
  <unicode hex="02D8"/>
  <outline>
    <contour>
      <point x="454" y="665"/>
      <point x="478" y="803" type="curve" smooth="yes"/>
      <point x="481" y="820" type="line"/>
      <point x="378" y="820" type="line"/>
      <point x="371" y="781"/>
      <point x="347" y="758"/>
      <point x="282" y="758" type="curve"/>
      <point x="217" y="758"/>
      <point x="201" y="781"/>
      <point x="208" y="820" type="curve"/>
      <point x="105" y="820" type="line"/>
      <point x="102" y="803" type="line" smooth="yes"/>
      <point x="78" y="665"/>
      <point x="149" y="600"/>
      <point x="254" y="600" type="curve"/>
      <point x="359" y="600"/>
    </contour>
    <contour>
      <point x="248" y="564" type="move" name="_top"/>
    </contour>
  </outline>
</glyph>
<glyph name="ring" format="1">
  <advance width="283"/>
  <unicode hex="02DA"/>
  <outline>
    <contour>
      <point x="103" y="807"/>
      <point x="88" y="725" type="curve"/>
      <point x="74" y="643"/>
      <point x="124" y="593"/>
      <point x="197" y="593" type="curve"/>
      <point x="270" y="593"/>
      <point x="338" y="643"/>
      <point x="352" y="725" type="curve"/>
      <point x="367" y="807"/>
      <point x="316" y="857"/>
      <point x="243" y="857" type="curve"/>
      <point x="170" y="857"/>
    </contour>
    <contour>
      <point x="271" y="754"/>
      <point x="266" y="725" type="curve"/>
      <point x="261" y="697"/>
      <point x="238" y="678"/>
      <point x="212" y="678" type="curve"/>
      <point x="186" y="678"/>
      <point x="169" y="697"/>
      <point x="174" y="725" type="curve"/>
      <point x="179" y="754"/>
      <point x="202" y="772"/>
      <point x="228" y="772" type="curve"/>
      <point x="254" y="772"/>
    </contour>
    <contour>
      <point x="192" y="564" type="move" name="_top"/>
    </contour>
  </outline>
</glyph>
<glyph name="ogonek" format="1">
  <advance width="302"/>
  <unicode hex="02DB"/>
  <outline>
    <contour>
      <point x="217" y="94" type="line"/>
      <point x="177" y="79" type="line" smooth="yes"/>
      <point x="10" y="16"/>
      <point x="-38" y="-37"/>
      <point x="-50" y="-103" type="curve" smooth="yes"/>
      <point x="-63" y="-177"/>
      <point x="-11" y="-223"/>
      <point x="90" y="-223" type="curve" smooth="yes"/>
      <point x="132" y="-223"/>
      <point x="171" y="-217"/>
      <point x="206" y="-207" type="curve"/>
      <point x="226" y="-91" type="line"/>
      <point x="191" y="-102"/>
      <point x="161" y="-107"/>
      <point x="138" y="-107" type="curve" smooth="yes"/>
      <point x="116" y="-107"/>
      <point x="106" y="-98"/>
      <point x="108" y="-86" type="curve" smooth="yes"/>
      <point x="112" y="-66"/>
      <point x="136" y="-48"/>
      <point x="196" y="-21" type="curve" smooth="yes"/>
      <point x="242" y="0" type="line"/>
    </contour>
    <contour>
      <point x="242" y="0" type="move" name="_ogonek"/>
    </contour>
  </outline>
</glyph>
<glyph name="tilde" format="1">
  <advance width="458"/>
  <unicode hex="02DC"/>
  <outline>
    <contour>
      <point x="103" y="740"/>
      <point x="58" y="612" type="curve"/>
      <point x="166" y="612" type="line"/>
      <point x="178" y="645"/>
      <point x="195" y="659"/>
      <point x="219" y="659" type="curve" smooth="yes"/>
      <point x="259" y="659"/>
      <point x="291" y="614"/>
      <point x="356" y="614" type="curve" smooth="yes"/>
      <point x="438" y="614"/>
      <point x="503" y="661"/>
      <point x="547" y="789" type="curve"/>
      <point x="438" y="789" type="line"/>
      <point x="428" y="757"/>
      <point x="410" y="742"/>
      <point x="386" y="742" type="curve" smooth="yes"/>
      <point x="346" y="742"/>
      <point x="315" y="788"/>
      <point x="250" y="788" type="curve" smooth="yes"/>
      <point x="168" y="788"/>
    </contour>
    <contour>
      <point x="284" y="564" type="move" name="_top"/>
    </contour>
  </outline>
</glyph>
<glyph name="hungarumlaut" format="1">
  <advance width="513"/>
  <unicode hex="02DD"/>
  <outline>
    <contour>
      <point x="602" y="845" type="line"/>
      <point x="434" y="845" type="line"/>
      <point x="286" y="601" type="line"/>
      <point x="419" y="601" type="line"/>
    </contour>
    <contour>
      <point x="357" y="845" type="line"/>
      <point x="189" y="845" type="line"/>
      <point x="66" y="601" type="line"/>
      <point x="199" y="601" type="line"/>
    </contour>
    <contour>
      <point x="252" y="564" type="move" name="_top"/>
    </contour>
  </outline>
</glyph>
<glyph name="endash" format="1">
  <advance width="683"/>
  <unicode hex="2013"/>
  <outline>
    <contour>
      <point x="82" y="433" type="line"/>
      <point x="49" y="250" type="line"/>
      <point x="622" y="250" type="line"/>
      <point x="655" y="433" type="line"/>
    </contour>
  </outline>
</glyph>
<glyph name="emdash" format="1">
  <advance width="936"/>
  <unicode hex="2014"/>
  <outline>
    <contour>
      <point x="82" y="433" type="line"/>
      <point x="49" y="250" type="line"/>
      <point x="875" y="250" type="line"/>
      <point x="908" y="433" type="line"/>
    </contour>
  </outline>
</glyph>
<glyph name="bullet" format="1">
  <advance width="536"/>
  <unicode hex="2022"/>
  <outline>
    <contour>
      <point x="154" y="166"/>
      <point x="248" y="166" type="curve" smooth="yes"/>
      <point x="343" y="166"/>
      <point x="428" y="239"/>
      <point x="445" y="333" type="curve" smooth="yes"/>
      <point x="462" y="428"/>
      <point x="402" y="502"/>
      <point x="307" y="502" type="curve" smooth="yes"/>
      <point x="213" y="502"/>
      <point x="126" y="428"/>
      <point x="109" y="333" type="curve" smooth="yes"/>
      <point x="92" y="239"/>
    </contour>
  </outline>
</glyph>
<glyph name="guilsinglleft" format="1">
  <advance width="373"/>
  <unicode hex="2039"/>
  <outline>
    <contour>
      <point x="294" y="120" type="line"/>
      <point x="246" y="295" type="line"/>
      <point x="356" y="470" type="line"/>
      <point x="155" y="470" type="line"/>
      <point x="47" y="295" type="line"/>
      <point x="93" y="120" type="line"/>
    </contour>
  </outline>
</glyph>
<glyph name="guilsinglright" format="1">
  <advance width="373"/>
  <unicode hex="203A"/>
  <outline>
    <contour>
      <point x="21" y="120" type="line"/>
      <point x="223" y="120" type="line"/>
      <point x="330" y="295" type="line"/>
      <point x="285" y="470" type="line"/>
      <point x="83" y="470" type="line"/>
      <point x="132" y="295" type="line"/>
    </contour>
  </outline>
</glyph>
<glyph name="rightArrow" format="1">
  <advance width="929"/>
  <unicode hex="2192"/>
  <outline>
    <contour>
      <point x="626" y="-69" type="line"/>
      <point x="879" y="227" type="line"/>
      <point x="879" y="322" type="line"/>
      <point x="626" y="618" type="line"/>
      <point x="497" y="506" type="line"/>
      <point x="724" y="259" type="line"/>
      <point x="724" y="291" type="line"/>
      <point x="497" y="43" type="line"/>
    </contour>
    <contour>
      <point x="50" y="365" type="line"/>
      <point x="50" y="184" type="line"/>
      <point x="775" y="184" type="line"/>
      <point x="775" y="365" type="line"/>
    </contour>
  </outline>
</glyph>
<glyph name="increment" format="1">
  <advance width="770"/>
  <unicode hex="2206"/>
  <outline>
    <contour>
      <point x="372" y="711" type="line"/>
      <point x="0" y="168" type="line"/>
      <point x="-30" y="0" type="line"/>
      <point x="700" y="0" type="line"/>
      <point x="730" y="168" type="line"/>
      <point x="551" y="711" type="line"/>
    </contour>
    <contour>
      <point x="417" y="460" type="line"/>
      <point x="501" y="168" type="line"/>
      <point x="229" y="168" type="line"/>
    </contour>
  </outline>
</glyph>
<glyph name="minus" format="1">
  <advance width="506"/>
  <unicode hex="2212"/>
  <outline>
    <contour>
      <point x="47" y="433" type="line"/>
      <point x="14" y="250" type="line"/>
      <point x="480" y="250" type="line"/>
      <point x="513" y="433" type="line"/>
    </contour>
  </outline>
</glyph>
<glyph name="radical" format="1">
  <advance width="1020"/>
  <unicode hex="221A"/>
  <outline>
    <contour>
      <point x="983" y="927" type="line"/>
      <point x="434" y="194" type="line"/>
      <point x="457" y="172" type="line"/>
      <point x="343" y="472" type="line"/>
      <point x="22" y="301" type="line"/>
      <point x="66" y="201" type="line"/>
      <point x="168" y="255" type="line"/>
      <point x="281" y="-40" type="line"/>
      <point x="386" y="-40" type="line"/>
      <point x="1107" y="927" type="line"/>
    </contour>
  </outline>
</glyph>
<glyph name="notequal" format="1">
  <advance width="626"/>
  <unicode hex="2260"/>
  <outline>
    <contour>
      <point x="570" y="680" type="line"/>
      <point x="-29" y="-1" type="line"/>
      <point x="78" y="-1" type="line"/>
      <point x="676" y="680" type="line"/>
    </contour>
    <component base="equal"/>
  </outline>
</glyph>
<glyph name="lessequal" format="1">
  <advance width="492"/>
  <unicode hex="2264"/>
  <outline>
    <contour>
      <point x="457" y="195" type="line"/>
      <point x="304" y="382" type="line"/>
      <point x="301" y="368" type="line"/>
      <point x="520" y="556" type="line"/>
      <point x="248" y="556" type="line"/>
      <point x="36" y="375" type="line"/>
      <point x="185" y="195" type="line"/>
    </contour>
    <contour>
      <point x="18" y="111" type="line"/>
      <point x="-12" y="-60" type="line"/>
      <point x="412" y="-60" type="line"/>
      <point x="442" y="111" type="line"/>
    </contour>
  </outline>
</glyph>
<glyph name="lozenge" format="1">
  <advance width="572"/>
  <unicode hex="25CA"/>
  <outline>
    <contour>
      <point x="348" y="630" type="line"/>
      <point x="23" y="355" type="line"/>
      <point x="251" y="79" type="line"/>
      <point x="575" y="355" type="line"/>
    </contour>
    <contour>
      <point x="312" y="423" type="line"/>
      <point x="368" y="355" type="line"/>
      <point x="288" y="286" type="line"/>
      <point x="231" y="355" type="line"/>
    </contour>
  </outline>
</glyph>
<glyph name="a_o" format="1">
  <advance width="995"/>
  <unicode hex="F1130"/>
  <outline>
    <contour>
      <point x="502" y="131" type="curve" smooth="yes"/>
      <point x="589" y="219" type="line"/>
      <point x="608" y="329" type="line" smooth="yes"/>
      <point x="611" y="348"/>
      <point x="612" y="360"/>
      <point x="612" y="374" type="curve" smooth="yes"/>
      <point x="612" y="496"/>
      <point x="522" y="572"/>
      <point x="369" y="572" type="curve" smooth="yes"/>
      <point x="199" y="572"/>
      <point x="89" y="479"/>
      <point x="46" y="354" type="curve"/>
      <point x="270" y="354" type="line"/>
      <point x="282" y="375"/>
      <point x="303" y="394"/>
      <point x="336" y="394" type="curve" smooth="yes"/>
      <point x="367" y="394"/>
      <point x="387" y="377"/>
      <point x="387" y="346" type="curve" smooth="yes"/>
      <point x="387" y="340"/>
      <point x="386" y="337"/>
      <point x="385" y="334" type="curve"/>
      <point x="288" y="334" type="line" smooth="yes"/>
      <point x="129" y="334"/>
      <point x="0" y="253"/>
      <point x="0" y="126" type="curve" smooth="yes"/>
      <point x="0" y="38"/>
      <point x="72" y="-11"/>
      <point x="175" y="-11" type="curve" smooth="yes"/>
      <point x="266" y="-11"/>
      <point x="372" y="0"/>
    </contour>
    <contour>
      <point x="272" y="143" type="curve" smooth="yes"/>
      <point x="247" y="143"/>
      <point x="231" y="154"/>
      <point x="231" y="174" type="curve" smooth="yes"/>
      <point x="231" y="201"/>
      <point x="258" y="223"/>
      <point x="296" y="223" type="curve" smooth="yes"/>
      <point x="366" y="223" type="line"/>
      <point x="366" y="221" type="line" smooth="yes"/>
      <point x="366" y="179"/>
      <point x="316" y="143"/>
    </contour>
    <component base="o" xOffset="354"/>
  </outline>
</glyph>
<glyph name="c_h" format="1">
  <advance width="1002"/>
  <unicode hex="F1510"/>
  <outline>
    <contour>
      <point x="356" y="571" type="curve" smooth="yes"/>
      <point x="190" y="571"/>
      <point x="52" y="462"/>
      <point x="20" y="282" type="curve"/>
      <point x="-12" y="102"/>
      <point x="88" y="-7"/>
      <point x="257" y="-7" type="curve" smooth="yes"/>
      <point x="402" y="-7"/>
      <point x="526" y="79"/>
      <point x="579" y="227" type="curve"/>
      <point x="344" y="227" type="line"/>
      <point x="332" y="200"/>
      <point x="314" y="183"/>
      <point x="286" y="183" type="curve" smooth="yes"/>
      <point x="252" y="183"/>
      <point x="233" y="214"/>
      <point x="245" y="282" type="curve" smooth="yes"/>
      <point x="257" y="350"/>
      <point x="285" y="381"/>
      <point x="322" y="381" type="curve" smooth="yes"/>
      <point x="352" y="381"/>
      <point x="366" y="356"/>
      <point x="366" y="311" type="curve" smooth="yes"/>
      <point x="366" y="309" type="line"/>
      <point x="557" y="327" type="line"/>
      <point x="537" y="468"/>
      <point x="484" y="571"/>
    </contour>
    <contour>
      <point x="442" y="740" type="line"/>
      <point x="366" y="309" type="line"/>
      <point x="588" y="309" type="line"/>
      <point x="664" y="740" type="line"/>
    </contour>
    <contour>
      <point x="744" y="299" type="curve" smooth="yes"/>
      <point x="691" y="0" type="line"/>
      <point x="912" y="0" type="line"/>
      <point x="970" y="327" type="line" smooth="yes"/>
      <point x="996" y="473"/>
      <point x="937" y="568"/>
      <point x="807" y="568" type="curve" smooth="yes"/>
      <point x="707" y="568"/>
      <point x="635" y="511"/>
      <point x="598" y="451" type="curve"/>
      <point x="588" y="308" type="line"/>
      <point x="596" y="353"/>
      <point x="631" y="386"/>
      <point x="680" y="386" type="curve" smooth="yes"/>
      <point x="728" y="386"/>
      <point x="754" y="353"/>
    </contour>
  </outline>
</glyph>
<glyph name="c_q" format="1">
  <advance width="597"/>
  <unicode hex="F1540"/>
  <outline>
    <contour>
      <point x="358" y="227" type="line"/>
      <point x="270" y="-270" type="line"/>
      <point x="491" y="-270" type="line"/>
      <point x="579" y="227" type="line"/>
    </contour>
    <component base="c"/>
  </outline>
</glyph>
<glyph name="c_q_u_e.ss12" format="1">
  <advance width="1330"/>
  <unicode hex="F1560"/>
  <outline>
    <contour>
      <point x="913" y="0" type="line"/>
      <point x="1013" y="564" type="line"/>
      <point x="791" y="564" type="line"/>
      <point x="691" y="0" type="line"/>
    </contour>
    <contour>
      <point x="579" y="227" type="curve"/>
      <point x="352" y="227" type="line"/>
      <point x="331" y="87"/>
      <point x="391" y="-4"/>
      <point x="518" y="-4" type="curve" smooth="yes"/>
      <point x="618" y="-4"/>
      <point x="689" y="53"/>
      <point x="726" y="113" type="curve"/>
      <point x="738" y="265" type="line"/>
      <point x="728" y="211"/>
      <point x="693" y="178"/>
      <point x="644" y="178" type="curve" smooth="yes"/>
      <point x="609" y="178"/>
      <point x="585" y="196"/>
    </contour>
    <component base="c_q"/>
    <component base="bout-e" xOffset="726" identifier="9F19EEFA"/>
  </outline>
</glyph>
<glyph name="d_u_d_e_l_a" format="1">
  <advance width="2427"/>
  <unicode hex="F1730"/>
  <outline>
    <contour>
      <point x="994" y="747" type="curve" smooth="yes"/>
      <point x="1031" y="956" type="line"/>
      <point x="809" y="956" type="line"/>
      <point x="767" y="719" type="line" smooth="yes"/>
      <point x="738" y="558"/>
      <point x="868" y="478"/>
      <point x="1026" y="478" type="curve" smooth="yes"/>
      <point x="1206" y="478"/>
      <point x="1343" y="573"/>
      <point x="1369" y="719" type="curve" smooth="yes"/>
      <point x="1411" y="956" type="line"/>
      <point x="1189" y="956" type="line"/>
      <point x="1152" y="747" type="line" smooth="yes"/>
      <point x="1142" y="693"/>
      <point x="1106" y="660"/>
      <point x="1058" y="660" type="curve" smooth="yes"/>
      <point x="1010" y="660"/>
      <point x="984" y="693"/>
    </contour>
    <contour>
      <point x="527" y="956" type="line"/>
      <point x="463" y="593" type="line"/>
      <point x="685" y="593" type="line"/>
      <point x="749" y="956" type="line"/>
    </contour>
    <component base="d"/>
    <component base="e" xOffset="683"/>
    <component base="l" xOffset="1464" identifier="ED7F3FF1"/>
    <component base="a" xOffset="1786" identifier="40AE0FBD"/>
  </outline>
</glyph>
<glyph name="Eacute_E" format="1">
  <advance width="1043"/>
  <unicode hex="F1820"/>
  <outline>
    <contour>
      <point x="512" y="708" type="line"/>
      <point x="481" y="531" type="line"/>
      <point x="627" y="531" type="line"/>
      <point x="658" y="708" type="line"/>
    </contour>
    <contour>
      <point x="419" y="177" type="line"/>
      <point x="388" y="0" type="line"/>
      <point x="534" y="0" type="line"/>
      <point x="565" y="177" type="line"/>
    </contour>
    <contour>
      <point x="466" y="444" type="line"/>
      <point x="436" y="277" type="line"/>
      <point x="582" y="277" type="line"/>
      <point x="612" y="444" type="line"/>
    </contour>
    <component base="Eacute"/>
    <component base="E" xOffset="481" identifier="F4A06702"/>
  </outline>
</glyph>
<glyph name="e_a" format="1">
  <advance width="977"/>
  <unicode hex="F1910"/>
  <outline>
    <contour>
      <point x="455" y="235" type="line"/>
      <point x="705" y="235" type="line"/>
      <point x="703" y="221" type="line" smooth="yes"/>
      <point x="695" y="180"/>
      <point x="653" y="143"/>
      <point x="611" y="143" type="curve" smooth="yes"/>
      <point x="582" y="143"/>
      <point x="564" y="160"/>
      <point x="569" y="196" type="curve"/>
      <point x="340" y="151" type="line"/>
      <point x="322" y="46"/>
      <point x="392" y="-11"/>
      <point x="489" y="-11" type="curve" smooth="yes"/>
      <point x="561" y="-11"/>
      <point x="642" y="20"/>
      <point x="679" y="76" type="curve"/>
      <point x="666" y="0" type="line"/>
      <point x="887" y="0" type="line"/>
      <point x="945" y="332" type="line" smooth="yes"/>
      <point x="970" y="476"/>
      <point x="897" y="572"/>
      <point x="742" y="572" type="curve" smooth="yes"/>
      <point x="580" y="572"/>
      <point x="474" y="469"/>
      <point x="420" y="334" type="curve"/>
      <point x="601" y="322" type="line"/>
      <point x="609" y="375"/>
      <point x="642" y="394"/>
      <point x="675" y="394" type="curve" smooth="yes"/>
      <point x="711" y="394"/>
      <point x="730" y="370"/>
      <point x="723" y="332" type="curve"/>
      <point x="472" y="332" type="line"/>
    </contour>
    <contour>
      <point x="225" y="332" type="line"/>
      <point x="208" y="235" type="line"/>
      <point x="585" y="235" type="line"/>
      <point x="590" y="254"/>
      <point x="595" y="273"/>
      <point x="597" y="287" type="curve" smooth="yes"/>
      <point x="628" y="464"/>
      <point x="528" y="571"/>
      <point x="359" y="571" type="curve" smooth="yes"/>
      <point x="190" y="571"/>
      <point x="52" y="462"/>
      <point x="20" y="282" type="curve" smooth="yes"/>
      <point x="-11" y="102"/>
      <point x="88" y="-7"/>
      <point x="257" y="-7" type="curve" smooth="yes"/>
      <point x="399" y="-7"/>
      <point x="525" y="83"/>
      <point x="569" y="196" type="curve"/>
      <point x="334" y="196" type="line"/>
      <point x="324" y="186"/>
      <point x="307" y="170"/>
      <point x="278" y="170" type="curve" smooth="yes"/>
      <point x="245" y="170"/>
      <point x="220" y="189"/>
      <point x="232" y="258" type="curve" smooth="yes"/>
      <point x="241" y="311" type="line" smooth="yes"/>
      <point x="252" y="370"/>
      <point x="284" y="397"/>
      <point x="329" y="397" type="curve"/>
      <point x="362" y="397"/>
      <point x="388" y="379"/>
      <point x="380" y="332" type="curve"/>
    </contour>
  </outline>
</glyph>
<glyph name="e_s" format="1">
  <advance width="990"/>
  <unicode hex="F1950"/>
  <outline>
    <contour>
      <point x="514" y="288" type="line"/>
      <point x="506" y="243" type="line"/>
      <point x="612" y="243" type="line"/>
      <point x="620" y="288" type="line"/>
    </contour>
    <contour>
      <point x="226" y="340" type="line"/>
      <point x="209" y="243" type="line"/>
      <point x="586" y="243" type="line"/>
      <point x="591" y="257"/>
      <point x="594" y="273"/>
      <point x="597" y="287" type="curve" smooth="yes"/>
      <point x="628" y="464"/>
      <point x="528" y="571"/>
      <point x="359" y="571" type="curve"/>
      <point x="190" y="571"/>
      <point x="52" y="462"/>
      <point x="20" y="282" type="curve" smooth="yes"/>
      <point x="-12" y="102"/>
      <point x="88" y="-7"/>
      <point x="257" y="-7" type="curve" smooth="yes"/>
      <point x="399" y="-7"/>
      <point x="525" y="83"/>
      <point x="569" y="195" type="curve"/>
      <point x="334" y="195" type="line"/>
      <point x="324" y="186"/>
      <point x="306" y="170"/>
      <point x="277" y="170" type="curve" smooth="yes"/>
      <point x="244" y="170"/>
      <point x="220" y="189"/>
      <point x="232" y="258" type="curve" smooth="yes"/>
      <point x="241" y="311" type="line" smooth="yes"/>
      <point x="252" y="370"/>
      <point x="283" y="397"/>
      <point x="328" y="397" type="curve"/>
      <point x="361" y="397"/>
      <point x="388" y="379"/>
      <point x="381" y="340" type="curve"/>
    </contour>
    <component base="s" xOffset="426" identifier="7AD36412"/>
  </outline>
</glyph>
<glyph name="e_t" format="1">
  <advance width="755"/>
  <unicode hex="F1960"/>
  <outline>
    <contour>
      <point x="464" y="646" type="line"/>
      <point x="390" y="231" type="line" smooth="yes"/>
      <point x="359" y="56"/>
      <point x="449" y="0"/>
      <point x="581" y="0" type="curve" smooth="yes"/>
      <point x="665" y="0" type="line"/>
      <point x="699" y="189" type="line"/>
      <point x="646" y="189" type="line" smooth="yes"/>
      <point x="617" y="189"/>
      <point x="606" y="201"/>
      <point x="611" y="227" type="curve" smooth="yes"/>
      <point x="708" y="775" type="line"/>
    </contour>
    <contour>
      <point x="546" y="379" type="line"/>
      <point x="730" y="379" type="line"/>
      <point x="763" y="564" type="line"/>
      <point x="579" y="564" type="line"/>
    </contour>
    <component base="bout-e" identifier="01F2164C"/>
  </outline>
</glyph>
<glyph name="e_t_t" format="1">
  <advance width="1172"/>
  <unicode hex="F1970"/>
  <outline>
    <contour>
      <point x="415" y="243" type="line"/>
      <point x="637" y="243" type="line"/>
      <point x="730" y="775" type="line"/>
      <point x="484" y="636" type="line"/>
    </contour>
    <contour>
      <point x="469" y="379" type="line"/>
      <point x="903" y="379" type="line"/>
      <point x="935" y="564" type="line"/>
      <point x="501" y="564" type="line"/>
    </contour>
    <contour>
      <point x="632" y="203" type="curve"/>
      <point x="408" y="203" type="line"/>
      <point x="390" y="51"/>
      <point x="478" y="0"/>
      <point x="604" y="0" type="curve" smooth="yes"/>
      <point x="688" y="0" type="line"/>
      <point x="721" y="189" type="line"/>
      <point x="671" y="189" type="line" smooth="yes"/>
      <point x="652" y="189"/>
      <point x="640" y="195"/>
    </contour>
    <component base="t" xOffset="731"/>
    <component base="e"/>
  </outline>
</glyph>
<glyph name="e_u" format="1">
  <advance width="993"/>
  <unicode hex="F19A0"/>
  <outline>
    <contour>
      <point x="893" y="0" type="line"/>
      <point x="992" y="564" type="line"/>
      <point x="770" y="564" type="line"/>
      <point x="671" y="0" type="line"/>
    </contour>
    <contour>
      <point x="570" y="203" type="curve"/>
      <point x="327" y="192" type="line"/>
      <point x="320" y="72"/>
      <point x="381" y="-4"/>
      <point x="497" y="-4" type="curve" smooth="yes"/>
      <point x="597" y="-4"/>
      <point x="668" y="53"/>
      <point x="706" y="113" type="curve"/>
      <point x="717" y="265" type="line"/>
      <point x="708" y="211"/>
      <point x="672" y="178"/>
      <point x="623" y="178" type="curve" smooth="yes"/>
      <point x="600" y="178"/>
      <point x="582" y="186"/>
    </contour>
    <component base="e"/>
  </outline>
</glyph>
<glyph name="f_f_e" format="1">
  <advance width="1074"/>
  <unicode hex="F2130"/>
  <outline>
    <contour>
      <point x="383" y="564" type="line"/>
      <point x="351" y="379" type="line"/>
      <point x="567" y="379" type="line"/>
      <point x="599" y="564" type="line"/>
    </contour>
    <contour>
      <point x="119" y="559" type="curve" smooth="yes"/>
      <point x="20" y="0" type="line"/>
      <point x="242" y="0" type="line"/>
      <point x="337" y="539" type="line" smooth="yes"/>
      <point x="347" y="595"/>
      <point x="372" y="611"/>
      <point x="432" y="604" type="curve"/>
      <point x="465" y="793" type="line"/>
      <point x="275" y="810"/>
      <point x="148" y="722"/>
    </contour>
    <contour>
      <point x="60" y="564" type="line"/>
      <point x="27" y="379" type="line"/>
      <point x="392" y="379" type="line"/>
      <point x="425" y="564" type="line"/>
    </contour>
    <contour>
      <point x="504" y="559" type="curve" smooth="yes"/>
      <point x="405" y="0" type="line"/>
      <point x="627" y="0" type="line"/>
      <point x="722" y="539" type="line" smooth="yes"/>
      <point x="732" y="595"/>
      <point x="757" y="611"/>
      <point x="817" y="604" type="curve"/>
      <point x="850" y="793" type="line"/>
      <point x="660" y="810"/>
      <point x="533" y="722"/>
    </contour>
    <component base="bout-e" xOffset="460"/>
  </outline>
</glyph>
<glyph name="f_v" format="1">
  <advance width="693"/>
  <unicode hex="F2150"/>
  <outline>
    <contour>
      <point x="119" y="559" type="curve" smooth="yes"/>
      <point x="21" y="0" type="line"/>
      <point x="243" y="0" type="line"/>
      <point x="338" y="539" type="line" smooth="yes"/>
      <point x="348" y="595"/>
      <point x="373" y="611"/>
      <point x="432" y="604" type="curve"/>
      <point x="466" y="793" type="line"/>
      <point x="276" y="810"/>
      <point x="148" y="722"/>
    </contour>
    <contour>
      <point x="541" y="564" type="line"/>
      <point x="191" y="0" type="line"/>
      <point x="380" y="0" type="line"/>
      <point x="777" y="564" type="line"/>
    </contour>
    <contour>
      <point x="60" y="564" type="line"/>
      <point x="28" y="379" type="line"/>
      <point x="273" y="379" type="line"/>
      <point x="305" y="564" type="line"/>
    </contour>
  </outline>
</glyph>
<glyph name="f_v_e.ss12" format="1">
  <advance width="983"/>
  <unicode hex="F2160"/>
  <outline>
    <contour>
      <point x="119" y="559" type="curve" smooth="yes"/>
      <point x="21" y="0" type="line"/>
      <point x="243" y="0" type="line"/>
      <point x="338" y="539" type="line" smooth="yes"/>
      <point x="348" y="595"/>
      <point x="373" y="611"/>
      <point x="432" y="604" type="curve"/>
      <point x="466" y="793" type="line"/>
      <point x="276" y="810"/>
      <point x="148" y="722"/>
    </contour>
    <contour>
      <point x="454" y="423" type="line"/>
      <point x="191" y="0" type="line"/>
      <point x="380" y="0" type="line"/>
      <point x="777" y="564" type="line"/>
    </contour>
    <contour>
      <point x="60" y="564" type="line"/>
      <point x="28" y="379" type="line"/>
      <point x="273" y="379" type="line"/>
      <point x="305" y="564" type="line"/>
    </contour>
    <component base="bout-e" xOffset="379"/>
  </outline>
</glyph>
<glyph name="h_o_f" format="1">
  <advance width="1109"/>
  <unicode hex="F2510"/>
  <outline>
    <contour>
      <point x="131" y="740" type="line"/>
      <point x="1" y="0" type="line"/>
      <point x="223" y="0" type="line"/>
      <point x="353" y="740" type="line"/>
    </contour>
    <contour>
      <point x="428" y="299" type="curve" smooth="yes"/>
      <point x="424" y="277" type="line"/>
      <point x="650" y="277" type="line"/>
      <point x="659" y="327" type="line" smooth="yes"/>
      <point x="685" y="473"/>
      <point x="625" y="568"/>
      <point x="495" y="568" type="curve" smooth="yes"/>
      <point x="395" y="568"/>
      <point x="324" y="511"/>
      <point x="286" y="451" type="curve"/>
      <point x="275" y="299" type="line"/>
      <point x="284" y="353"/>
      <point x="320" y="386"/>
      <point x="369" y="386" type="curve" smooth="yes"/>
      <point x="417" y="386"/>
      <point x="438" y="353"/>
    </contour>
    <contour>
      <point x="852" y="559" type="curve" smooth="yes"/>
      <point x="803" y="277" type="line"/>
      <point x="1025" y="277" type="line"/>
      <point x="1071" y="539" type="line" smooth="yes"/>
      <point x="1081" y="595"/>
      <point x="1106" y="611"/>
      <point x="1165" y="604" type="curve"/>
      <point x="1199" y="793" type="line"/>
      <point x="1009" y="810"/>
      <point x="880" y="722"/>
    </contour>
    <contour>
      <point x="893" y="564" type="line"/>
      <point x="861" y="379" type="line"/>
      <point x="1126" y="379" type="line"/>
      <point x="1158" y="564" type="line"/>
    </contour>
    <component base="o" xOffset="405"/>
  </outline>
</glyph>
<glyph name="I_E" format="1">
  <advance width="681"/>
  <unicode hex="F2610"/>
  <outline>
    <contour>
      <point x="96" y="708" type="line"/>
      <point x="65" y="532" type="line"/>
      <point x="389" y="532" type="line"/>
      <point x="420" y="708" type="line"/>
    </contour>
    <contour>
      <point x="3" y="176" type="line"/>
      <point x="-28" y="0" type="line"/>
      <point x="296" y="0" type="line"/>
      <point x="327" y="176" type="line"/>
    </contour>
    <component base="E" xOffset="119"/>
  </outline>
</glyph>
<glyph name="l_l" format="1">
  <advance width="644"/>
  <unicode hex="F3320"/>
  <outline>
    <contour>
      <point x="9" y="50" type="line"/>
      <point x="0" y="0" type="line" smooth="yes"/>
      <point x="-20" y="-112"/>
      <point x="45" y="-244"/>
      <point x="229" y="-244" type="curve" smooth="yes"/>
      <point x="413" y="-244"/>
      <point x="525" y="-112"/>
      <point x="544" y="0" type="curve" smooth="yes"/>
      <point x="552" y="47" type="line"/>
      <point x="331" y="50" type="line"/>
      <point x="322" y="0" type="line" smooth="yes"/>
      <point x="314" y="-42"/>
      <point x="295" y="-70"/>
      <point x="260" y="-70" type="curve" smooth="yes"/>
      <point x="225" y="-70"/>
      <point x="215" y="-42"/>
      <point x="222" y="0" type="curve" smooth="yes"/>
      <point x="230" y="47" type="line"/>
    </contour>
    <component base="l"/>
    <component base="l" xOffset="322"/>
  </outline>
</glyph>
<glyph name="l_u" format="1">
  <advance width="701"/>
  <unicode hex="F3350"/>
  <outline>
    <contour>
      <point x="69" y="389" type="line"/>
      <point x="291" y="392" type="line"/>
      <point x="360" y="785" type="line"/>
      <point x="116" y="655" type="line"/>
    </contour>
    <component base="u" xOffset="8" identifier="2E620B62"/>
  </outline>
</glyph>
<glyph name="n_n" format="1">
  <advance width="1018"/>
  <unicode hex="F3740"/>
  <outline>
    <contour>
      <point x="783" y="429" type="curve" smooth="yes"/>
      <point x="730" y="130" type="line"/>
      <point x="951" y="130" type="line"/>
      <point x="1009" y="457" type="line" smooth="yes"/>
      <point x="1035" y="603"/>
      <point x="975" y="698"/>
      <point x="845" y="698" type="curve" smooth="yes"/>
      <point x="745" y="698"/>
      <point x="648" y="627"/>
      <point x="597" y="529" type="curve"/>
      <point x="625" y="429" type="line"/>
      <point x="635" y="483"/>
      <point x="670" y="516"/>
      <point x="719" y="516" type="curve" smooth="yes"/>
      <point x="767" y="516"/>
      <point x="793" y="483"/>
    </contour>
    <component base="n"/>
  </outline>
</glyph>
<glyph name="o_t" format="1">
  <advance width="1064"/>
  <unicode hex="F3940"/>
  <outline>
    <contour>
      <point x="788" y="636" type="line"/>
      <point x="719" y="249" type="line"/>
      <point x="941" y="249" type="line"/>
      <point x="1034" y="775" type="line"/>
    </contour>
    <contour>
      <point x="672" y="379" type="line"/>
      <point x="1056" y="379" type="line"/>
      <point x="1089" y="564" type="line"/>
      <point x="705" y="564" type="line"/>
    </contour>
    <contour>
      <point x="620" y="283" type="line"/>
      <point x="390" y="236" type="line"/>
      <point x="370" y="124"/>
      <point x="438" y="-8"/>
      <point x="622" y="-8" type="curve" smooth="yes"/>
      <point x="806" y="-8"/>
      <point x="919" y="124"/>
      <point x="939" y="236" type="curve" smooth="yes"/>
      <point x="947" y="283" type="line"/>
      <point x="725" y="283" type="line"/>
      <point x="717" y="236" type="line" smooth="yes"/>
      <point x="710" y="194"/>
      <point x="688" y="166"/>
      <point x="653" y="166" type="curve" smooth="yes"/>
      <point x="618" y="166"/>
      <point x="605" y="194"/>
      <point x="612" y="236" type="curve" smooth="yes"/>
    </contour>
    <component base="o"/>
  </outline>
</glyph>
<glyph name="o_idieresis" format="1">
  <advance width="1014"/>
  <unicode hex="F3970"/>
  <outline>
    <contour>
      <point x="620" y="283" type="line"/>
      <point x="390" y="236" type="line"/>
      <point x="370" y="124"/>
      <point x="438" y="-8"/>
      <point x="622" y="-8" type="curve" smooth="yes"/>
      <point x="806" y="-8"/>
      <point x="920" y="124"/>
      <point x="939" y="236" type="curve" smooth="yes"/>
      <point x="947" y="283" type="line"/>
      <point x="725" y="283" type="line"/>
      <point x="717" y="236" type="line" smooth="yes"/>
      <point x="710" y="194"/>
      <point x="688" y="166"/>
      <point x="653" y="166" type="curve" smooth="yes"/>
      <point x="618" y="166"/>
      <point x="605" y="194"/>
      <point x="612" y="236" type="curve" smooth="yes"/>
    </contour>
    <contour>
      <point x="997" y="564" type="line"/>
      <point x="775" y="564" type="line"/>
      <point x="719" y="249" type="line"/>
      <point x="941" y="249" type="line"/>
    </contour>
    <component base="o"/>
    <component base="dieresis" xOffset="630"/>
  </outline>
</glyph>
<glyph name="o_idieresis_n_e.ss12" format="1">
  <advance width="1694"/>
  <unicode hex="F3980"/>
  <outline>
    <contour>
      <point x="1108" y="299" type="curve" smooth="yes"/>
      <point x="1055" y="0" type="line"/>
      <point x="1276" y="0" type="line"/>
      <point x="1334" y="327" type="line" smooth="yes"/>
      <point x="1360" y="473"/>
      <point x="1300" y="568"/>
      <point x="1170" y="568" type="curve" smooth="yes"/>
      <point x="1070" y="568"/>
      <point x="999" y="511"/>
      <point x="962" y="451" type="curve"/>
      <point x="950" y="299" type="line"/>
      <point x="960" y="353"/>
      <point x="995" y="386"/>
      <point x="1044" y="386" type="curve" smooth="yes"/>
      <point x="1092" y="386"/>
      <point x="1118" y="353"/>
    </contour>
    <component base="bout-e" xOffset="1090"/>
    <component base="o_idieresis"/>
  </outline>
</glyph>
<glyph name="p_m" format="1">
  <advance width="1414"/>
  <unicode hex="F4110"/>
  <outline>
    <contour>
      <point x="777" y="299" type="curve" smooth="yes"/>
      <point x="724" y="0" type="line"/>
      <point x="945" y="0" type="line"/>
      <point x="1003" y="327" type="line" smooth="yes"/>
      <point x="1029" y="473"/>
      <point x="960" y="568"/>
      <point x="829" y="568" type="curve" smooth="yes"/>
      <point x="734" y="568"/>
      <point x="667" y="516"/>
      <point x="633" y="461" type="curve"/>
      <point x="619" y="299" type="line"/>
      <point x="627" y="347"/>
      <point x="663" y="376"/>
      <point x="712" y="376" type="curve" smooth="yes"/>
      <point x="760" y="376"/>
      <point x="785" y="347"/>
    </contour>
    <contour>
      <point x="1156" y="299" type="curve" smooth="yes"/>
      <point x="1103" y="0" type="line"/>
      <point x="1324" y="0" type="line"/>
      <point x="1382" y="327" type="line" smooth="yes"/>
      <point x="1408" y="473"/>
      <point x="1343" y="568"/>
      <point x="1197" y="568" type="curve" smooth="yes"/>
      <point x="1095" y="568"/>
      <point x="1009" y="497"/>
      <point x="965" y="427" type="curve"/>
      <point x="998" y="299" type="line"/>
      <point x="1006" y="347"/>
      <point x="1042" y="376"/>
      <point x="1091" y="376" type="curve" smooth="yes"/>
      <point x="1139" y="376"/>
      <point x="1164" y="347"/>
    </contour>
    <component base="p"/>
  </outline>
</glyph>
<glyph name="r_e.ss10" format="1">
  <advance width="960"/>
  <unicode hex="F4511"/>
  <outline>
    <contour>
      <point x="219" y="291" type="curve"/>
      <point x="263" y="231" type="line"/>
      <point x="287" y="367"/>
      <point x="462" y="621"/>
      <point x="736" y="621" type="curve" smooth="yes"/>
      <point x="777" y="621" type="line"/>
      <point x="812" y="821" type="line"/>
      <point x="772" y="821" type="line" smooth="yes"/>
      <point x="491" y="821"/>
      <point x="241" y="416"/>
    </contour>
    <contour>
      <point x="100" y="564" type="line"/>
      <point x="1" y="0" type="line"/>
      <point x="223" y="0" type="line"/>
      <point x="322" y="564" type="line"/>
    </contour>
    <component base="bout-e" xOffset="350" yOffset="-32" identifier="9ABCDAC2"/>
  </outline>
</glyph>
<glyph name="r_i" format="1">
  <advance width="740"/>
  <unicode hex="F4570"/>
  <outline>
    <contour>
      <point x="219" y="291" type="curve"/>
      <point x="263" y="231" type="line"/>
      <point x="277" y="308"/>
      <point x="323" y="341"/>
      <point x="403" y="341" type="curve" smooth="yes"/>
      <point x="702" y="341" type="line"/>
      <point x="744" y="571" type="line"/>
      <point x="507" y="571" type="line" smooth="yes"/>
      <point x="377" y="571"/>
      <point x="243" y="428"/>
    </contour>
    <contour>
      <point x="100" y="564" type="line"/>
      <point x="0" y="0" type="line"/>
      <point x="222" y="0" type="line"/>
      <point x="322" y="564" type="line"/>
    </contour>
    <contour>
      <point x="532" y="718" type="curve" smooth="yes"/>
      <point x="521" y="657"/>
      <point x="562" y="609"/>
      <point x="641" y="609" type="curve" smooth="yes"/>
      <point x="719" y="609"/>
      <point x="776" y="657"/>
      <point x="787" y="718" type="curve" smooth="yes"/>
      <point x="798" y="780"/>
      <point x="757" y="829"/>
      <point x="679" y="829" type="curve" smooth="yes"/>
      <point x="600" y="829"/>
      <point x="543" y="780"/>
    </contour>
    <contour>
      <point x="695" y="294" type="line"/>
      <point x="473" y="294" type="line"/>
      <point x="421" y="0" type="line"/>
      <point x="643" y="0" type="line"/>
    </contour>
  </outline>
</glyph>
<glyph name="r_i.ss10" format="1">
  <advance width="780"/>
  <unicode hex="F4571"/>
  <outline>
    <contour>
      <point x="219" y="291" type="curve"/>
      <point x="263" y="231" type="line"/>
      <point x="277" y="308"/>
      <point x="460" y="611"/>
      <point x="651" y="611" type="curve" smooth="yes"/>
      <point x="795" y="611" type="line"/>
      <point x="832" y="821" type="line"/>
      <point x="762" y="821" type="line" smooth="yes"/>
      <point x="491" y="821"/>
      <point x="241" y="416"/>
    </contour>
    <contour>
      <point x="100" y="564" type="line"/>
      <point x="1" y="0" type="line"/>
      <point x="223" y="0" type="line"/>
      <point x="322" y="564" type="line"/>
    </contour>
    <contour>
      <point x="567" y="564" type="line"/>
      <point x="468" y="0" type="line"/>
      <point x="690" y="0" type="line"/>
      <point x="789" y="564" type="line"/>
    </contour>
  </outline>
</glyph>
<glyph name="r_s" format="1">
  <advance width="910"/>
  <unicode hex="F45C0"/>
  <outline>
    <contour>
      <point x="219" y="291" type="curve"/>
      <point x="263" y="231" type="line"/>
      <point x="277" y="308"/>
      <point x="323" y="331"/>
      <point x="403" y="331" type="curve" smooth="yes"/>
      <point x="548" y="331" type="line"/>
      <point x="678" y="559" type="line"/>
      <point x="506" y="559" type="line" smooth="yes"/>
      <point x="376" y="559"/>
      <point x="243" y="428"/>
    </contour>
    <contour>
      <point x="100" y="564" type="line"/>
      <point x="0" y="0" type="line"/>
      <point x="222" y="0" type="line"/>
      <point x="322" y="564" type="line"/>
    </contour>
    <component base="s" xOffset="346"/>
  </outline>
</glyph>
<glyph name="r_s.ss10" format="1">
  <advance width="556"/>
  <unicode hex="F45C1"/>
  <outline>
    <contour>
      <point x="216" y="-162" type="curve" smooth="yes"/>
      <point x="360" y="-162"/>
      <point x="471" y="-92"/>
      <point x="492" y="30" type="curve" smooth="yes"/>
      <point x="527" y="224"/>
      <point x="272" y="185"/>
      <point x="288" y="277" type="curve" smooth="yes"/>
      <point x="297" y="325"/>
      <point x="366" y="331"/>
      <point x="420" y="331" type="curve" smooth="yes"/>
      <point x="526" y="331" type="line"/>
      <point x="567" y="568" type="line"/>
      <point x="524" y="568" type="line" smooth="yes"/>
      <point x="394" y="568"/>
      <point x="260" y="428"/>
      <point x="236" y="291" type="curve"/>
      <point x="60" y="240" type="line"/>
      <point x="23" y="32"/>
      <point x="299" y="89"/>
      <point x="286" y="18" type="curve" smooth="yes"/>
      <point x="284" y="2"/>
      <point x="268" y="-9"/>
      <point x="245" y="-9" type="curve" smooth="yes"/>
      <point x="217" y="-9"/>
      <point x="199" y="6"/>
      <point x="200" y="40" type="curve"/>
      <point x="-13" y="40" type="line"/>
      <point x="-23" y="-75"/>
      <point x="56" y="-162"/>
    </contour>
    <contour>
      <point x="117" y="564" type="line"/>
      <point x="59" y="238" type="line"/>
      <point x="269" y="171" type="line"/>
      <point x="339" y="564" type="line"/>
    </contour>
  </outline>
</glyph>
<glyph name="r_s_e.ss12" format="1">
  <advance width="1242"/>
  <unicode hex="F45D0"/>
  <outline>
    <contour>
      <point x="219" y="291" type="curve"/>
      <point x="263" y="231" type="line"/>
      <point x="277" y="308"/>
      <point x="323" y="331"/>
      <point x="403" y="331" type="curve" smooth="yes"/>
      <point x="548" y="331" type="line"/>
      <point x="678" y="559" type="line"/>
      <point x="506" y="559" type="line" smooth="yes"/>
      <point x="376" y="559"/>
      <point x="243" y="428"/>
    </contour>
    <contour>
      <point x="100" y="564" type="line"/>
      <point x="0" y="0" type="line"/>
      <point x="222" y="0" type="line"/>
      <point x="322" y="564" type="line"/>
    </contour>
    <component base="s_e" xOffset="344"/>
  </outline>
</glyph>
<glyph name="s_c" format="1">
  <advance width="872"/>
  <unicode hex="F4710"/>
  <outline>
    <contour>
      <point x="360" y="369" type="curve"/>
      <point x="564" y="369" type="line"/>
      <point x="575" y="376"/>
      <point x="587" y="381"/>
      <point x="600" y="381" type="curve" smooth="yes"/>
      <point x="628" y="381"/>
      <point x="640" y="364"/>
      <point x="644" y="337" type="curve"/>
      <point x="879" y="337" type="line"/>
      <point x="878" y="485"/>
      <point x="784" y="571"/>
      <point x="639" y="571" type="curve" smooth="yes"/>
      <point x="498" y="571"/>
      <point x="379" y="496"/>
    </contour>
    <contour>
      <point x="519" y="226" type="curve"/>
      <point x="325" y="95" type="line"/>
      <point x="365" y="30"/>
      <point x="439" y="-7"/>
      <point x="537" y="-7" type="curve" smooth="yes"/>
      <point x="682" y="-7"/>
      <point x="806" y="79"/>
      <point x="859" y="227" type="curve"/>
      <point x="624" y="227" type="line"/>
      <point x="612" y="200"/>
      <point x="594" y="183"/>
      <point x="566" y="183" type="curve" smooth="yes"/>
      <point x="543" y="183"/>
      <point x="527" y="197"/>
    </contour>
    <component base="s"/>
  </outline>
</glyph>
<glyph name="s_c_e.ss12" format="1">
  <advance width="1237"/>
  <unicode hex="F4720"/>
  <outline>
    <contour>
      <point x="636" y="571" type="curve" smooth="yes"/>
      <point x="495" y="571"/>
      <point x="377" y="496"/>
      <point x="358" y="369" type="curve"/>
      <point x="562" y="369" type="line"/>
      <point x="573" y="376"/>
      <point x="585" y="381"/>
      <point x="600" y="381" type="curve" smooth="yes"/>
      <point x="640" y="381"/>
      <point x="667" y="351"/>
      <point x="648" y="244" type="curve"/>
      <point x="882" y="351" type="line"/>
      <point x="881" y="485"/>
      <point x="781" y="571"/>
    </contour>
    <contour>
      <point x="843" y="194" type="curve"/>
      <point x="598" y="194" type="line"/>
      <point x="588" y="187"/>
      <point x="578" y="183"/>
      <point x="564" y="183" type="curve" smooth="yes"/>
      <point x="541" y="183"/>
      <point x="525" y="197"/>
      <point x="519" y="226" type="curve"/>
      <point x="323" y="95" type="line"/>
      <point x="363" y="30"/>
      <point x="437" y="-7"/>
      <point x="535" y="-7" type="curve" smooth="yes"/>
      <point x="669" y="-7"/>
      <point x="785" y="66"/>
    </contour>
    <component base="s"/>
    <component base="bout-e" xOffset="633"/>
  </outline>
</glyph>
<glyph name="s_e" format="1">
  <advance width="898"/>
  <unicode hex="F4740"/>
  <outline>
    <contour>
      <point x="341" y="369" type="curve"/>
      <point x="560" y="369" type="line"/>
      <point x="575" y="390"/>
      <point x="597" y="397"/>
      <point x="622" y="397" type="curve" smooth="yes"/>
      <point x="655" y="397"/>
      <point x="682" y="379"/>
      <point x="674" y="334" type="curve"/>
      <point x="299" y="334" type="line"/>
      <point x="283" y="243" type="line"/>
      <point x="880" y="243" type="line"/>
      <point x="885" y="257"/>
      <point x="889" y="273"/>
      <point x="891" y="287" type="curve" smooth="yes"/>
      <point x="922" y="464"/>
      <point x="822" y="571"/>
      <point x="653" y="571" type="curve" smooth="yes"/>
      <point x="514" y="571"/>
      <point x="395" y="498"/>
    </contour>
    <component base="s" identifier="E225D295"/>
  </outline>
</glyph>
<glyph name="s_l" format="1">
  <advance width="564"/>
  <unicode hex="F4760"/>
  <outline>
    <contour>
      <point x="196" y="487" type="line"/>
      <point x="418" y="487" type="line"/>
      <point x="470" y="785" type="line"/>
      <point x="226" y="655" type="line"/>
    </contour>
    <component base="s"/>
  </outline>
</glyph>
<glyph name="s_s" format="1">
  <advance width="1228"/>
  <unicode hex="F4790"/>
  <outline>
    <contour>
      <point x="62" y="385" type="curve" smooth="yes"/>
      <point x="26" y="178"/>
      <point x="329" y="246"/>
      <point x="316" y="172" type="curve" smooth="yes"/>
      <point x="313" y="158"/>
      <point x="297" y="146"/>
      <point x="274" y="146" type="curve" smooth="yes"/>
      <point x="240" y="146"/>
      <point x="216" y="161"/>
      <point x="217" y="195" type="curve"/>
      <point x="5" y="195" type="line"/>
      <point x="-7" y="80"/>
      <point x="85" y="-7"/>
      <point x="248" y="-7" type="curve" smooth="yes"/>
      <point x="398" y="-7"/>
      <point x="504" y="46"/>
      <point x="522" y="146" type="curve" smooth="yes"/>
      <point x="558" y="350"/>
      <point x="251" y="321"/>
      <point x="263" y="391" type="curve" smooth="yes"/>
      <point x="266" y="408"/>
      <point x="283" y="417"/>
      <point x="315" y="417" type="curve" smooth="yes"/>
      <point x="361" y="417"/>
      <point x="450" y="391"/>
      <point x="514" y="280" type="curve" smooth="yes"/>
      <point x="584" y="158" type="line" smooth="yes"/>
      <point x="650" y="42"/>
      <point x="764" y="-7"/>
      <point x="907" y="-7" type="curve" smooth="yes"/>
      <point x="1047" y="-7"/>
      <point x="1170" y="42"/>
      <point x="1188" y="142" type="curve" smooth="yes"/>
      <point x="1226" y="359"/>
      <point x="920" y="321"/>
      <point x="932" y="391" type="curve" smooth="yes"/>
      <point x="935" y="408"/>
      <point x="950" y="417"/>
      <point x="972" y="417" type="curve" smooth="yes"/>
      <point x="1008" y="417"/>
      <point x="1027" y="399"/>
      <point x="1027" y="369" type="curve"/>
      <point x="1224" y="369" type="line"/>
      <point x="1228" y="480"/>
      <point x="1165" y="571"/>
      <point x="1004" y="571" type="curve" smooth="yes"/>
      <point x="845" y="571"/>
      <point x="749" y="487"/>
      <point x="731" y="385" type="curve" smooth="yes"/>
      <point x="695" y="178"/>
      <point x="994" y="227"/>
      <point x="985" y="172" type="curve" smooth="yes"/>
      <point x="982" y="158"/>
      <point x="965" y="146"/>
      <point x="922" y="146" type="curve" smooth="yes"/>
      <point x="860" y="146"/>
      <point x="784" y="181"/>
      <point x="738" y="263" type="curve" smooth="yes"/>
      <point x="664" y="394" type="line" smooth="yes"/>
      <point x="594" y="519"/>
      <point x="494" y="571"/>
      <point x="355" y="571" type="curve" smooth="yes"/>
      <point x="186" y="571"/>
      <point x="80" y="487"/>
    </contour>
  </outline>
</glyph>
<glyph name="s_s_e" format="1">
  <advance width="1585"/>
  <unicode hex="F47A0"/>
  <outline>
    <contour>
      <point x="1028" y="369" type="curve"/>
      <point x="1247" y="369" type="line"/>
      <point x="1262" y="390"/>
      <point x="1284" y="397"/>
      <point x="1309" y="397" type="curve" smooth="yes"/>
      <point x="1342" y="397"/>
      <point x="1369" y="379"/>
      <point x="1361" y="334" type="curve"/>
      <point x="986" y="334" type="line"/>
      <point x="970" y="243" type="line"/>
      <point x="1567" y="243" type="line"/>
      <point x="1572" y="257"/>
      <point x="1576" y="273"/>
      <point x="1578" y="287" type="curve" smooth="yes"/>
      <point x="1609" y="464"/>
      <point x="1509" y="571"/>
      <point x="1340" y="571" type="curve" smooth="yes"/>
      <point x="1201" y="571"/>
      <point x="1082" y="498"/>
    </contour>
    <component base="s_s"/>
  </outline>
</glyph>
<glyph name="s_t" format="1">
  <advance width="959"/>
  <unicode hex="F47C0"/>
  <outline>
    <contour>
      <point x="254" y="-7" type="curve" smooth="yes"/>
      <point x="397" y="-7"/>
      <point x="526" y="47"/>
      <point x="526" y="177" type="curve" smooth="yes"/>
      <point x="526" y="355"/>
      <point x="251" y="314"/>
      <point x="259" y="362" type="curve" smooth="yes"/>
      <point x="262" y="379"/>
      <point x="276" y="381"/>
      <point x="298" y="381" type="curve" smooth="yes"/>
      <point x="934" y="381" type="line"/>
      <point x="967" y="564" type="line"/>
      <point x="352" y="564" type="line" smooth="yes"/>
      <point x="181" y="564"/>
      <point x="56" y="507"/>
      <point x="56" y="364" type="curve" smooth="yes"/>
      <point x="56" y="184"/>
      <point x="318" y="237"/>
      <point x="318" y="175" type="curve" smooth="yes"/>
      <point x="318" y="158"/>
      <point x="300" y="146"/>
      <point x="275" y="146" type="curve" smooth="yes"/>
      <point x="241" y="146"/>
      <point x="217" y="161"/>
      <point x="218" y="195" type="curve"/>
      <point x="5" y="195" type="line"/>
      <point x="-12" y="80"/>
      <point x="91" y="-7"/>
    </contour>
    <contour>
      <point x="665" y="636" type="line"/>
      <point x="594" y="231" type="line" smooth="yes"/>
      <point x="563" y="56"/>
      <point x="653" y="0"/>
      <point x="785" y="0" type="curve" smooth="yes"/>
      <point x="869" y="0" type="line"/>
      <point x="903" y="189" type="line"/>
      <point x="850" y="189" type="line" smooth="yes"/>
      <point x="821" y="189"/>
      <point x="810" y="201"/>
      <point x="815" y="227" type="curve" smooth="yes"/>
      <point x="912" y="775" type="line"/>
    </contour>
  </outline>
</glyph>
<glyph name="s_t_e.ss12" format="1">
  <advance width="1192"/>
  <unicode hex="F47D0"/>
  <outline>
    <contour>
      <point x="254" y="-7" type="curve" smooth="yes"/>
      <point x="397" y="-7"/>
      <point x="526" y="47"/>
      <point x="526" y="177" type="curve" smooth="yes"/>
      <point x="526" y="355"/>
      <point x="251" y="314"/>
      <point x="259" y="362" type="curve" smooth="yes"/>
      <point x="262" y="379"/>
      <point x="276" y="381"/>
      <point x="298" y="381" type="curve" smooth="yes"/>
      <point x="734" y="381" type="line"/>
      <point x="767" y="564" type="line"/>
      <point x="352" y="564" type="line" smooth="yes"/>
      <point x="181" y="564"/>
      <point x="56" y="507"/>
      <point x="56" y="364" type="curve" smooth="yes"/>
      <point x="56" y="184"/>
      <point x="318" y="237"/>
      <point x="318" y="175" type="curve" smooth="yes"/>
      <point x="318" y="158"/>
      <point x="300" y="146"/>
      <point x="275" y="146" type="curve" smooth="yes"/>
      <point x="241" y="146"/>
      <point x="217" y="161"/>
      <point x="218" y="195" type="curve"/>
      <point x="5" y="195" type="line"/>
      <point x="-12" y="80"/>
      <point x="91" y="-7"/>
    </contour>
    <contour>
      <point x="665" y="636" type="line"/>
      <point x="594" y="231" type="line" smooth="yes"/>
      <point x="563" y="56"/>
      <point x="653" y="0"/>
      <point x="785" y="0" type="curve" smooth="yes"/>
      <point x="869" y="0" type="line"/>
      <point x="903" y="189" type="line"/>
      <point x="850" y="189" type="line" smooth="yes"/>
      <point x="821" y="189"/>
      <point x="810" y="201"/>
      <point x="815" y="227" type="curve" smooth="yes"/>
      <point x="912" y="775" type="line"/>
    </contour>
    <component base="bout-e" xOffset="588"/>
  </outline>
</glyph>
<glyph name="t_e" format="1">
  <advance width="674"/>
  <unicode hex="F4910"/>
  <outline>
    <contour>
      <point x="150" y="646" type="line"/>
      <point x="76" y="231" type="line" smooth="yes"/>
      <point x="45" y="56"/>
      <point x="135" y="0"/>
      <point x="267" y="0" type="curve" smooth="yes"/>
      <point x="351" y="0" type="line"/>
      <point x="385" y="189" type="line"/>
      <point x="332" y="189" type="line" smooth="yes"/>
      <point x="303" y="189"/>
      <point x="292" y="201"/>
      <point x="297" y="227" type="curve" smooth="yes"/>
      <point x="394" y="775" type="line"/>
    </contour>
    <contour>
      <point x="32" y="379" type="line"/>
      <point x="208" y="379" type="line"/>
      <point x="241" y="564" type="line"/>
      <point x="65" y="564" type="line"/>
    </contour>
    <component base="bout-e" xOffset="70"/>
  </outline>
</glyph>
<glyph name="t_e.ss10" format="1">
  <advance width="852"/>
  <unicode hex="F4911"/>
  <outline>
    <contour>
      <point x="148" y="636" type="line"/>
      <point x="76" y="231" type="line" smooth="yes"/>
      <point x="45" y="56"/>
      <point x="136" y="0"/>
      <point x="268" y="0" type="curve" smooth="yes"/>
      <point x="352" y="0" type="line"/>
      <point x="385" y="189" type="line"/>
      <point x="332" y="189" type="line" smooth="yes"/>
      <point x="303" y="189"/>
      <point x="293" y="201"/>
      <point x="298" y="227" type="curve" smooth="yes"/>
      <point x="394" y="775" type="line"/>
    </contour>
    <contour>
      <point x="33" y="379" type="line"/>
      <point x="417" y="379" type="line"/>
      <point x="449" y="564" type="line"/>
      <point x="65" y="564" type="line"/>
    </contour>
    <component base="bout-e" xOffset="272" yOffset="136"/>
  </outline>
</glyph>
<glyph name="t_e.ss11" format="1">
  <advance width="1048"/>
  <unicode hex="F4912"/>
  <outline>
    <contour>
      <point x="148" y="636" type="line"/>
      <point x="76" y="231" type="line" smooth="yes"/>
      <point x="45" y="56"/>
      <point x="136" y="0"/>
      <point x="268" y="0" type="curve" smooth="yes"/>
      <point x="352" y="0" type="line"/>
      <point x="385" y="189" type="line"/>
      <point x="332" y="189" type="line" smooth="yes"/>
      <point x="303" y="189"/>
      <point x="293" y="201"/>
      <point x="298" y="227" type="curve" smooth="yes"/>
      <point x="394" y="775" type="line"/>
    </contour>
    <contour>
      <point x="33" y="379" type="line"/>
      <point x="667" y="379" type="line"/>
      <point x="759" y="564" type="line"/>
      <point x="65" y="564" type="line"/>
    </contour>
    <component base="bout-e" xOffset="444" yOffset="1"/>
  </outline>
</glyph>
<glyph name="t_t" format="1">
  <advance width="877"/>
  <unicode hex="F4970"/>
  <outline>
    <contour>
      <point x="403" y="564" type="line"/>
      <point x="371" y="379" type="line"/>
      <point x="507" y="379" type="line"/>
      <point x="539" y="564" type="line"/>
    </contour>
    <component base="t"/>
    <component base="t" xOffset="436"/>
  </outline>
</glyph>
<glyph name="t_t_e" format="1">
  <advance width="1110"/>
  <unicode hex="F4980"/>
  <outline>
    <contour>
      <point x="263" y="379" type="line"/>
      <point x="647" y="379" type="line"/>
      <point x="679" y="564" type="line"/>
      <point x="295" y="564" type="line"/>
    </contour>
    <component base="t"/>
    <component base="t_e" xOffset="436"/>
  </outline>
</glyph>
<glyph name="t_t_e.ss11" format="1">
  <advance width="1484"/>
  <unicode hex="F4982"/>
  <outline>
    <contour>
      <point x="228" y="378" type="line"/>
      <point x="572" y="378" type="line"/>
      <point x="572" y="564" type="line"/>
      <point x="228" y="564" type="line"/>
    </contour>
    <component base="t"/>
    <component base="t_e.ss11" xOffset="436" yOffset="1"/>
  </outline>
</glyph>
<glyph name="x_c" format="1">
  <advance width="858"/>
  <unicode hex="F5710"/>
  <outline>
    <contour>
      <point x="298" y="127" type="line"/>
      <point x="437" y="318" type="line"/>
      <point x="298" y="564" type="line"/>
      <point x="50" y="564" type="line"/>
    </contour>
    <contour>
      <point x="361" y="213" type="line"/>
      <point x="265" y="375" type="line"/>
      <point x="-40" y="0" type="line"/>
      <point x="204" y="0" type="line"/>
    </contour>
    <component base="c" xOffset="261"/>
  </outline>
</glyph>
<glyph name="x_c_e.ss12" format="1">
  <advance width="1203"/>
  <unicode hex="F5720"/>
  <outline>
    <contour>
      <point x="298" y="127" type="line"/>
      <point x="437" y="318" type="line"/>
      <point x="298" y="564" type="line"/>
      <point x="50" y="564" type="line"/>
    </contour>
    <contour>
      <point x="361" y="213" type="line"/>
      <point x="265" y="375" type="line"/>
      <point x="-40" y="0" type="line"/>
      <point x="204" y="0" type="line"/>
    </contour>
    <contour>
      <point x="620" y="571" type="curve" smooth="yes"/>
      <point x="451" y="571"/>
      <point x="313" y="462"/>
      <point x="281" y="282" type="curve" smooth="yes"/>
      <point x="249" y="102"/>
      <point x="349" y="-7"/>
      <point x="518" y="-7" type="curve" smooth="yes"/>
      <point x="654" y="-7"/>
      <point x="771" y="68"/>
      <point x="829" y="200" type="curve"/>
      <point x="587" y="200" type="line"/>
      <point x="577" y="189"/>
      <point x="564" y="183"/>
      <point x="547" y="183" type="curve" smooth="yes"/>
      <point x="513" y="183"/>
      <point x="494" y="214"/>
      <point x="506" y="282" type="curve" smooth="yes"/>
      <point x="518" y="350"/>
      <point x="547" y="381"/>
      <point x="581" y="381" type="curve" smooth="yes"/>
      <point x="609" y="381"/>
      <point x="631" y="364"/>
      <point x="614" y="243" type="curve"/>
      <point x="841" y="439" type="line"/>
      <point x="807" y="524"/>
      <point x="728" y="571"/>
    </contour>
    <component base="bout-e" xOffset="599"/>
  </outline>
</glyph>
<glyph name="x_s" format="1">
  <advance width="927"/>
  <unicode hex="F57A0"/>
  <outline>
    <contour>
      <point x="50" y="564" type="line"/>
      <point x="298" y="142" type="line" smooth="yes"/>
      <point x="359" y="38"/>
      <point x="451" y="-7"/>
      <point x="593" y="-7" type="curve" smooth="yes"/>
      <point x="777" y="-7"/>
      <point x="892" y="58"/>
      <point x="892" y="177" type="curve" smooth="yes"/>
      <point x="892" y="350"/>
      <point x="650" y="330"/>
      <point x="650" y="391" type="curve" smooth="yes"/>
      <point x="650" y="408"/>
      <point x="668" y="417"/>
      <point x="688" y="417" type="curve" smooth="yes"/>
      <point x="716" y="417"/>
      <point x="735" y="399"/>
      <point x="735" y="369" type="curve"/>
      <point x="932" y="369" type="line"/>
      <point x="936" y="480"/>
      <point x="847" y="571"/>
      <point x="689" y="571" type="curve" smooth="yes"/>
      <point x="542" y="571"/>
      <point x="446" y="492"/>
      <point x="446" y="391" type="curve" smooth="yes"/>
      <point x="446" y="205"/>
      <point x="684" y="237"/>
      <point x="684" y="173" type="curve" smooth="yes"/>
      <point x="684" y="158"/>
      <point x="664" y="146"/>
      <point x="626" y="146" type="curve" smooth="yes"/>
      <point x="573" y="146"/>
      <point x="527" y="172"/>
      <point x="500" y="218" type="curve" smooth="yes"/>
      <point x="298" y="564" type="line"/>
    </contour>
    <contour>
      <point x="361" y="213" type="line"/>
      <point x="265" y="375" type="line"/>
      <point x="-40" y="0" type="line"/>
      <point x="204" y="0" type="line"/>
    </contour>
  </outline>
</glyph>
<glyph name="x_s_e.ss12" format="1">
  <advance width="1304"/>
  <unicode hex="F57B0"/>
  <outline>
    <contour>
      <point x="747" y="369" type="curve"/>
      <point x="966" y="369" type="line"/>
      <point x="981" y="390"/>
      <point x="1003" y="397"/>
      <point x="1028" y="397" type="curve" smooth="yes"/>
      <point x="1061" y="397"/>
      <point x="1088" y="379"/>
      <point x="1080" y="334" type="curve"/>
      <point x="705" y="334" type="line"/>
      <point x="689" y="243" type="line"/>
      <point x="1286" y="243" type="line"/>
      <point x="1291" y="257"/>
      <point x="1295" y="273"/>
      <point x="1297" y="287" type="curve" smooth="yes"/>
      <point x="1328" y="464"/>
      <point x="1228" y="571"/>
      <point x="1059" y="571" type="curve" smooth="yes"/>
      <point x="920" y="571"/>
      <point x="801" y="498"/>
    </contour>
    <component base="x_s"/>
  </outline>
</glyph>
<glyph name="A.ss07" format="1">
  <advance width="780"/>
  <outline>
    <contour>
      <point x="597" y="708" type="line"/>
      <point x="341" y="708" type="line"/>
      <point x="-43" y="0" type="line"/>
      <point x="190" y="0" type="line"/>
      <point x="488" y="593" type="line"/>
      <point x="409" y="593" type="line"/>
      <point x="496" y="0" type="line"/>
      <point x="730" y="0" type="line"/>
    </contour>
    <contour>
      <point x="377" y="274" type="line"/>
      <point x="244" y="107" type="line"/>
      <point x="610" y="107" type="line"/>
      <point x="585" y="274" type="line"/>
    </contour>
    <contour>
      <point x="730" y="0" type="move" name="ogonek"/>
    </contour>
    <contour>
      <point x="470" y="711" type="move" name="top"/>
    </contour>
  </outline>
</glyph>
<glyph name="H.ss07" format="1">
  <advance width="755"/>
  <outline>
    <contour>
      <point x="125" y="708" type="line"/>
      <point x="0" y="0" type="line"/>
      <point x="222" y="0" type="line"/>
      <point x="347" y="708" type="line"/>
    </contour>
    <contour>
      <point x="558" y="708" type="line"/>
      <point x="433" y="0" type="line"/>
      <point x="655" y="0" type="line"/>
      <point x="780" y="708" type="line"/>
    </contour>
    <contour>
      <point x="412" y="453" type="line"/>
      <point x="271" y="276" type="line"/>
      <point x="504" y="276" type="line"/>
      <point x="535" y="453" type="line"/>
    </contour>
  </outline>
</glyph>
<glyph name="L.ss07" format="1">
  <advance width="496"/>
  <outline>
    <contour>
      <point x="0" y="0" type="line"/>
      <point x="125" y="708" type="line"/>
      <point x="347" y="708" type="line"/>
      <point x="222" y="0" type="line"/>
    </contour>
    <contour>
      <point x="222" y="0" type="line"/>
      <point x="356" y="168" type="line"/>
      <point x="466" y="168" type="line"/>
      <point x="436" y="0" type="line"/>
    </contour>
    <contour>
      <point x="215" y="0" type="move" name="bottom"/>
    </contour>
    <contour>
      <point x="217" y="10" type="move" name="commaaccent"/>
    </contour>
    <contour>
      <point x="307" y="711" type="move" name="top"/>
    </contour>
    <contour>
      <point x="542" y="711" type="move" name="topright"/>
    </contour>
  </outline>
</glyph>
<glyph name="Lcaron.ss07" format="1">
  <advance width="496"/>
  <outline>
    <component base="L.ss07"/>
    <component base="caron" xOffset="81" yOffset="147"/>
    <contour>
      <point x="520" y="743" type="move" name="_bottom"/>
    </contour>
  </outline>
</glyph>
<glyph name="a.ss02" format="1">
  <advance width="680"/>
  <outline>
    <contour>
      <point x="52" y="464"/>
      <point x="20" y="282" type="curve"/>
      <point x="-12" y="100"/>
      <point x="72" y="-7"/>
      <point x="202" y="-7" type="curve"/>
      <point x="277" y="-7"/>
      <point x="337" y="26"/>
      <point x="373" y="77" type="curve"/>
      <point x="359" y="0" type="line"/>
      <point x="580" y="0" type="line"/>
      <point x="680" y="564" type="line"/>
      <point x="459" y="564" type="line"/>
      <point x="445" y="487" type="line"/>
      <point x="427" y="538"/>
      <point x="379" y="571"/>
      <point x="304" y="571" type="curve"/>
      <point x="174" y="571"/>
    </contour>
    <contour>
      <point x="420" y="344"/>
      <point x="409" y="282" type="curve"/>
      <point x="398" y="220"/>
      <point x="356" y="187"/>
      <point x="310" y="187" type="curve"/>
      <point x="264" y="187"/>
      <point x="234" y="220"/>
      <point x="245" y="282" type="curve"/>
      <point x="256" y="344"/>
      <point x="298" y="377"/>
      <point x="344" y="377" type="curve"/>
      <point x="390" y="377"/>
    </contour>
    <contour>
      <point x="580" y="0" type="move" name="ogonek"/>
    </contour>
    <contour>
      <point x="397" y="564" type="move" name="top"/>
    </contour>
  </outline>
</glyph>
<glyph name="a_u_l_a" format="1">
  <advance width="2485"/>
  <outline>
    <contour>
      <point x="1418" y="143" type="curve" smooth="yes"/>
      <point x="1393" y="143"/>
      <point x="1377" y="154"/>
      <point x="1377" y="174" type="curve" smooth="yes"/>
      <point x="1377" y="201"/>
      <point x="1404" y="223"/>
      <point x="1442" y="223" type="curve" smooth="yes"/>
      <point x="1512" y="223" type="line"/>
      <point x="1512" y="221" type="line" smooth="yes"/>
      <point x="1512" y="179"/>
      <point x="1462" y="143"/>
    </contour>
    <contour>
      <point x="1764" y="404" type="line"/>
      <point x="1543" y="404" type="line"/>
      <point x="1531" y="328" type="line"/>
      <point x="1434" y="328" type="line" smooth="yes"/>
      <point x="1274" y="328"/>
      <point x="1146" y="252"/>
      <point x="1146" y="128" type="curve" smooth="yes"/>
      <point x="1146" y="35"/>
      <point x="1211" y="-11"/>
      <point x="1295" y="-11" type="curve" smooth="yes"/>
      <point x="1371" y="-11"/>
      <point x="1452" y="20"/>
      <point x="1488" y="76" type="curve"/>
      <point x="1475" y="0" type="line"/>
      <point x="1696" y="0" type="line"/>
    </contour>
    <component base="agrave" identifier="EC63D8E6"/>
    <component base="l" xOffset="818" identifier="C97A4AAE"/>
    <component base="a" xOffset="1211" yOffset="392" identifier="AA013EFE"/>
    <component base="u" xOffset="1861" yOffset="392" identifier="866AC5FA"/>
  </outline>
</glyph>
<glyph name="ae.ss02" format="1">
  <advance width="1054"/>
  <outline>
    <contour>
      <point x="617" y="334" type="line"/>
      <point x="597" y="243" type="line"/>
      <point x="1022" y="243" type="line"/>
      <point x="1028" y="257"/>
      <point x="1032" y="273"/>
      <point x="1035" y="287" type="curve"/>
      <point x="1066" y="464"/>
      <point x="986" y="571"/>
      <point x="847" y="571" type="curve"/>
      <point x="766" y="571"/>
      <point x="702" y="540"/>
      <point x="666" y="487" type="curve"/>
      <point x="680" y="564" type="line"/>
      <point x="459" y="564" type="line"/>
      <point x="445" y="487" type="line"/>
      <point x="427" y="538"/>
      <point x="379" y="571"/>
      <point x="304" y="571" type="curve"/>
      <point x="174" y="571"/>
      <point x="52" y="464"/>
      <point x="20" y="282" type="curve"/>
      <point x="-12" y="100"/>
      <point x="72" y="-7"/>
      <point x="202" y="-7" type="curve"/>
      <point x="277" y="-7"/>
      <point x="337" y="26"/>
      <point x="373" y="77" type="curve"/>
      <point x="359" y="0" type="line"/>
      <point x="580" y="0" type="line"/>
      <point x="594" y="77" type="line"/>
      <point x="613" y="25"/>
      <point x="664" y="-7"/>
      <point x="745" y="-7" type="curve"/>
      <point x="862" y="-7"/>
      <point x="963" y="83"/>
      <point x="1008" y="203" type="curve"/>
      <point x="773" y="203" type="line"/>
      <point x="759" y="181"/>
      <point x="736" y="167"/>
      <point x="697" y="167" type="curve"/>
      <point x="650" y="167"/>
      <point x="620" y="190"/>
      <point x="634" y="273" type="curve"/>
      <point x="640" y="304" type="line"/>
      <point x="653" y="378"/>
      <point x="698" y="397"/>
      <point x="744" y="397" type="curve"/>
      <point x="789" y="397"/>
      <point x="826" y="378"/>
      <point x="818" y="334" type="curve"/>
    </contour>
    <contour>
      <point x="234" y="220"/>
      <point x="245" y="282" type="curve"/>
      <point x="256" y="344"/>
      <point x="298" y="377"/>
      <point x="344" y="377" type="curve"/>
      <point x="390" y="377"/>
      <point x="420" y="344"/>
      <point x="409" y="282" type="curve"/>
      <point x="398" y="220"/>
      <point x="356" y="187"/>
      <point x="310" y="187" type="curve"/>
      <point x="264" y="187"/>
    </contour>
  </outline>
</glyph>
<glyph name="ampersand.ss03" format="1">
  <advance width="700"/>
  <outline>
    <contour>
      <point x="437" y="715" type="curve" smooth="yes"/>
      <point x="290" y="715"/>
      <point x="199" y="628"/>
      <point x="183" y="537" type="curve" smooth="yes"/>
      <point x="172" y="476"/>
      <point x="181" y="426"/>
      <point x="224" y="375" type="curve"/>
      <point x="238" y="354" type="line"/>
      <point x="321" y="373" type="line"/>
      <point x="309" y="410"/>
      <point x="291" y="433"/>
      <point x="249" y="433" type="curve" smooth="yes"/>
      <point x="139" y="433"/>
      <point x="37" y="348"/>
      <point x="14" y="218" type="curve" smooth="yes"/>
      <point x="-7" y="98"/>
      <point x="53" y="-7"/>
      <point x="213" y="-7" type="curve" smooth="yes"/>
      <point x="326" y="-7"/>
      <point x="410" y="49"/>
      <point x="451" y="114" type="curve"/>
      <point x="459" y="124"/>
      <point x="467" y="135"/>
      <point x="475" y="145" type="curve"/>
      <point x="371" y="106" type="line"/>
      <point x="429" y="0" type="line"/>
      <point x="650" y="0" type="line"/>
      <point x="399" y="468" type="line" smooth="yes"/>
      <point x="388" y="490"/>
      <point x="383" y="500"/>
      <point x="386" y="512" type="curve" smooth="yes"/>
      <point x="388" y="524"/>
      <point x="397" y="532"/>
      <point x="409" y="532" type="curve" smooth="yes"/>
      <point x="425" y="532"/>
      <point x="430" y="523"/>
      <point x="430" y="505" type="curve" smooth="yes"/>
      <point x="430" y="494"/>
      <point x="429" y="480"/>
      <point x="426" y="464" type="curve"/>
      <point x="632" y="464" type="line"/>
      <point x="641" y="503"/>
      <point x="645" y="546"/>
      <point x="637" y="584" type="curve" smooth="yes"/>
      <point x="622" y="656"/>
      <point x="571" y="715"/>
    </contour>
    <contour>
      <point x="199" y="195"/>
      <point x="204" y="224" type="curve" smooth="yes"/>
      <point x="209" y="252"/>
      <point x="233" y="270"/>
      <point x="264" y="270" type="curve" smooth="yes"/>
      <point x="295" y="270"/>
      <point x="313" y="252"/>
      <point x="308" y="224" type="curve" smooth="yes"/>
      <point x="303" y="195"/>
      <point x="278" y="176"/>
      <point x="247" y="176" type="curve" smooth="yes"/>
      <point x="216" y="176"/>
    </contour>
  </outline>
</glyph>
<glyph name="asterisk.alt" format="1">
  <advance width="561"/>
  <outline>
    <contour>
      <point x="340" y="625" type="line"/>
      <point x="390" y="744" type="line"/>
      <point x="258" y="625" type="line"/>
      <point x="181" y="708" type="line"/>
      <point x="196" y="555" type="line"/>
      <point x="78" y="519" type="line"/>
      <point x="231" y="477" type="line"/>
      <point x="182" y="360" type="line"/>
      <point x="314" y="477" type="line"/>
      <point x="386" y="391" type="line"/>
      <point x="376" y="552" type="line"/>
      <point x="493" y="588" type="line"/>
    </contour>
  </outline>
</glyph>
<glyph name="bout-e" format="1">
  <advance width="604"/>
  <outline>
    <contour>
      <point x="15" y="243" type="curve"/>
      <point x="230" y="243" type="line"/>
      <point x="230" y="247"/>
      <point x="231" y="253"/>
      <point x="232" y="258" type="curve" smooth="yes"/>
      <point x="241" y="311" type="line" smooth="yes"/>
      <point x="251" y="370"/>
      <point x="283" y="397"/>
      <point x="328" y="397" type="curve" smooth="yes"/>
      <point x="361" y="397"/>
      <point x="388" y="379"/>
      <point x="380" y="334" type="curve"/>
      <point x="225" y="334" type="line"/>
      <point x="209" y="243" type="line"/>
      <point x="586" y="243" type="line"/>
      <point x="591" y="257"/>
      <point x="595" y="273"/>
      <point x="597" y="287" type="curve" smooth="yes"/>
      <point x="628" y="464"/>
      <point x="528" y="571"/>
      <point x="359" y="571" type="curve" smooth="yes"/>
      <point x="190" y="571"/>
      <point x="52" y="462"/>
      <point x="20" y="282" type="curve" smooth="yes"/>
      <point x="18" y="268"/>
      <point x="16" y="255"/>
    </contour>
  </outline>
</glyph>
<glyph name="colon.ss01" format="1">
  <advance width="332"/>
  <outline>
    <contour>
      <point x="50" y="212" type="line"/>
      <point x="12" y="0" type="line"/>
      <point x="232" y="0" type="line"/>
      <point x="270" y="212" type="line"/>
    </contour>
    <contour>
      <point x="119" y="603" type="line"/>
      <point x="81" y="391" type="line"/>
      <point x="301" y="391" type="line"/>
      <point x="339" y="603" type="line"/>
    </contour>
  </outline>
</glyph>
<glyph name="comma.ss01" format="1">
  <advance width="276"/>
  <outline>
    <contour>
      <point x="169" y="131" type="curve"/>
      <point x="-2" y="131" type="line"/>
      <point x="-35" y="-61" type="line"/>
      <point x="52" y="-61" type="line"/>
      <point x="50" y="-72" type="line" smooth="yes"/>
      <point x="40" y="-124"/>
      <point x="18" y="-132"/>
      <point x="-16" y="-132" type="curve"/>
      <point x="-30" y="-210" type="line"/>
      <point x="102" y="-210"/>
      <point x="166" y="-119"/>
      <point x="183" y="-23" type="curve" smooth="yes"/>
      <point x="193" y="33"/>
      <point x="187" y="90"/>
    </contour>
  </outline>
</glyph>
<glyph name="divide.ss01" format="1">
  <advance width="551"/>
  <outline>
    <contour>
      <point x="48" y="441" type="line"/>
      <point x="13" y="240" type="line"/>
      <point x="524" y="240" type="line"/>
      <point x="559" y="441" type="line"/>
    </contour>
    <contour>
      <point x="152" y="212" type="line"/>
      <point x="114" y="0" type="line"/>
      <point x="334" y="0" type="line"/>
      <point x="372" y="212" type="line"/>
    </contour>
    <contour>
      <point x="234" y="681" type="line"/>
      <point x="197" y="469" type="line"/>
      <point x="417" y="469" type="line"/>
      <point x="454" y="681" type="line"/>
    </contour>
  </outline>
</glyph>
<glyph name="e.ss07" format="1">
  <advance width="614"/>
  <outline>
    <contour>
      <point x="302" y="334" type="line"/>
      <point x="230" y="243" type="line"/>
      <point x="586" y="243" type="line"/>
      <point x="591" y="257"/>
      <point x="594" y="273"/>
      <point x="597" y="287" type="curve"/>
      <point x="628" y="464"/>
      <point x="528" y="571"/>
      <point x="359" y="571" type="curve"/>
      <point x="190" y="571"/>
      <point x="52" y="462"/>
      <point x="20" y="282" type="curve"/>
      <point x="-12" y="102"/>
      <point x="88" y="-7"/>
      <point x="257" y="-7" type="curve" smooth="yes"/>
      <point x="399" y="-7"/>
      <point x="525" y="83"/>
      <point x="570" y="203" type="curve"/>
      <point x="335" y="203" type="line"/>
      <point x="324" y="186"/>
      <point x="306" y="170"/>
      <point x="277" y="170" type="curve" smooth="yes"/>
      <point x="244" y="170"/>
      <point x="220" y="189"/>
      <point x="232" y="258" type="curve" smooth="yes"/>
      <point x="241" y="311" type="line" smooth="yes"/>
      <point x="251" y="370"/>
      <point x="283" y="397"/>
      <point x="328" y="397" type="curve"/>
      <point x="361" y="397"/>
      <point x="388" y="379"/>
      <point x="380" y="334" type="curve"/>
    </contour>
    <contour>
      <point x="257" y="-7" type="move" name="bottom"/>
    </contour>
    <contour>
      <point x="355" y="8" type="move" name="ogonek"/>
    </contour>
    <contour>
      <point x="372" y="564" type="move" name="top"/>
    </contour>
  </outline>
</glyph>
<glyph name="e_a.ss11" format="1">
  <advance width="1004"/>
  <outline>
    <contour>
      <point x="337" y="243" type="line"/>
      <point x="354" y="340" type="line"/>
      <point x="226" y="340" type="line"/>
      <point x="209" y="243" type="line"/>
    </contour>
    <contour>
      <point x="384" y="300" type="curve" smooth="yes"/>
      <point x="372" y="152" type="line" smooth="yes"/>
      <point x="364" y="48"/>
      <point x="419" y="-11"/>
      <point x="516" y="-11" type="curve" smooth="yes"/>
      <point x="588" y="-11"/>
      <point x="669" y="20"/>
      <point x="706" y="76" type="curve"/>
      <point x="693" y="0" type="line"/>
      <point x="914" y="0" type="line"/>
      <point x="972" y="332" type="line" smooth="yes"/>
      <point x="997" y="476"/>
      <point x="904" y="572"/>
      <point x="734" y="572" type="curve" smooth="yes"/>
      <point x="698" y="572"/>
      <point x="639" y="564"/>
      <point x="590" y="539" type="curve"/>
      <point x="659" y="382" type="line"/>
      <point x="676" y="393"/>
      <point x="694" y="394"/>
      <point x="702" y="394" type="curve" smooth="yes"/>
      <point x="738" y="394"/>
      <point x="757" y="370"/>
      <point x="748" y="323" type="curve"/>
      <point x="643" y="323" type="line"/>
      <point x="628" y="233" type="line"/>
      <point x="732" y="233" type="line"/>
      <point x="730" y="221" type="line" smooth="yes"/>
      <point x="722" y="180"/>
      <point x="683" y="143"/>
      <point x="625" y="143" type="curve" smooth="yes"/>
      <point x="597" y="143"/>
      <point x="583" y="158"/>
      <point x="587" y="197" type="curve" smooth="yes"/>
      <point x="599" y="325" type="line" smooth="yes"/>
      <point x="611" y="462"/>
      <point x="528" y="571"/>
      <point x="359" y="571" type="curve" smooth="yes"/>
      <point x="190" y="571"/>
      <point x="52" y="462"/>
      <point x="20" y="282" type="curve" smooth="yes"/>
      <point x="-11" y="102"/>
      <point x="88" y="-7"/>
      <point x="257" y="-7" type="curve" smooth="yes"/>
      <point x="287" y="-7"/>
      <point x="314" y="-4"/>
      <point x="352" y="6" type="curve"/>
      <point x="318" y="178" type="line"/>
      <point x="297" y="171"/>
      <point x="289" y="170"/>
      <point x="278" y="170" type="curve" smooth="yes"/>
      <point x="245" y="170"/>
      <point x="220" y="189"/>
      <point x="232" y="258" type="curve" smooth="yes"/>
      <point x="241" y="311" type="line" smooth="yes"/>
      <point x="252" y="370"/>
      <point x="284" y="397"/>
      <point x="329" y="397" type="curve" smooth="yes"/>
      <point x="362" y="397"/>
      <point x="391" y="379"/>
    </contour>
  </outline>
</glyph>
<glyph name="exclam.ss01" format="1">
  <advance width="442"/>
  <outline>
    <contour>
      <point x="183" y="755" type="line"/>
      <point x="126" y="281" type="line"/>
      <point x="316" y="281" type="line"/>
      <point x="425" y="755" type="line"/>
    </contour>
    <contour>
      <point x="99" y="212" type="line"/>
      <point x="61" y="0" type="line"/>
      <point x="281" y="0" type="line"/>
      <point x="319" y="212" type="line"/>
    </contour>
  </outline>
</glyph>
<glyph name="f_f" format="1">
  <advance width="775"/>
  <outline>
    <contour>
      <point x="355" y="564" type="line"/>
      <point x="355" y="379" type="line"/>
      <point x="483" y="379" type="line"/>
      <point x="483" y="564" type="line"/>
    </contour>
    <component base="f"/>
    <component base="f" xOffset="385"/>
  </outline>
</glyph>
<glyph name="f_f.ss07" format="1">
  <advance width="911"/>
  <outline>
    <contour>
      <point x="467" y="564" type="line"/>
      <point x="437" y="379" type="line"/>
      <point x="565" y="379" type="line"/>
      <point x="595" y="564" type="line"/>
    </contour>
    <component base="f.ss07"/>
    <component base="f.ss07" xOffset="448"/>
  </outline>
</glyph>
<glyph name="period.ss01" format="1">
  <advance width="277"/>
  <outline>
    <contour>
      <point x="16" y="212" type="line"/>
      <point x="-22" y="0" type="line"/>
      <point x="198" y="0" type="line"/>
      <point x="236" y="212" type="line"/>
    </contour>
  </outline>
</glyph>
<glyph name="quotedblright.ss01" format="1">
  <advance width="506"/>
  <outline>
    <contour>
      <point x="535" y="876" type="curve"/>
      <point x="379" y="876" type="line"/>
      <point x="353" y="730" type="line"/>
      <point x="425" y="730" type="line"/>
      <point x="423" y="718" type="line" smooth="yes"/>
      <point x="414" y="667"/>
      <point x="390" y="644"/>
      <point x="355" y="644" type="curve"/>
      <point x="341" y="565" type="line"/>
      <point x="455" y="565"/>
      <point x="520" y="645"/>
      <point x="537" y="742" type="curve" smooth="yes"/>
      <point x="545" y="784"/>
      <point x="545" y="830"/>
    </contour>
    <contour>
      <point x="311" y="876" type="curve"/>
      <point x="155" y="876" type="line"/>
      <point x="129" y="730" type="line"/>
      <point x="201" y="730" type="line"/>
      <point x="199" y="718" type="line" smooth="yes"/>
      <point x="190" y="667"/>
      <point x="165" y="644"/>
      <point x="131" y="644" type="curve"/>
      <point x="117" y="565" type="line"/>
      <point x="230" y="565"/>
      <point x="295" y="645"/>
      <point x="312" y="742" type="curve" smooth="yes"/>
      <point x="320" y="784"/>
      <point x="321" y="830"/>
    </contour>
    <contour>
      <point x="455" y="911" type="move" name="_bottom"/>
    </contour>
  </outline>
</glyph>
<glyph name="r.ss07" format="1">
  <advance width="468"/>
  <outline>
    <contour>
      <point x="100" y="564" type="line"/>
      <point x="0" y="0" type="line"/>
      <point x="222" y="0" type="line"/>
      <point x="322" y="564" type="line"/>
    </contour>
    <contour>
      <point x="436" y="564" type="line"/>
      <point x="289" y="379" type="line"/>
      <point x="475" y="379" type="line"/>
      <point x="508" y="564" type="line"/>
    </contour>
    <contour>
      <point x="105" y="0" type="move" name="bottom"/>
    </contour>
    <contour>
      <point x="325" y="564" type="move" name="top"/>
    </contour>
  </outline>
</glyph>
